<?xml version="1.0" encoding="utf-8"?>
<!-- Generator: Adobe Illustrator 17.0.0, SVG Export Plug-In . SVG Version: 6.00 Build 0)  -->
<!DOCTYPE svg PUBLIC "-//W3C//DTD SVG 1.1//EN" "http://www.w3.org/Graphics/SVG/1.1/DTD/svg11.dtd">
<svg version="1.1" id="图层_1" xmlns="http://www.w3.org/2000/svg" xmlns:xlink="http://www.w3.org/1999/xlink" x="0px" y="0px"
	 width="523.237px" height="168.96px" viewBox="634.365 167.208 523.237 168.96"
	 enable-background="new 634.365 167.208 523.237 168.96" xml:space="preserve">
<path fill="#F08300" d="M721.707,167.208c26.259,0,52.474,0,78.733,0c1.937,0,3.616,0.56,5.166,1.636
	c1.98,1.378,2.927,3.272,2.927,5.768c-0.043,7.921,0,15.841,0,23.762c0,22.643,0,45.285,0,67.928c0,2.281,0.301,4.563,0.387,6.888
	c0.043,1.722-0.086,3.401-0.172,5.123c0,0.301-0.129,0.603-0.258,0.904c-0.43,1.076-1.076,1.421-2.109,0.947
	c-0.775-0.344-1.55-0.775-2.152-1.378c-1.722-1.636-3.444-3.315-4.993-5.08c-4.262-4.821-8.437-9.729-12.742-14.507
	c-11.58-12.914-23.719-25.226-36.03-37.494c-3.013-3.013-6.07-6.027-9.126-8.997c-2.454-2.368-5.295-4.176-8.609-5.08
	c-4.649-1.291-8.997-0.344-13.129,1.894c-4.477,2.411-8.265,5.768-11.623,9.556c-3.831,4.348-7.576,8.782-11.278,13.258
	c-2.238,2.669-4.907,4.52-8.394,4.95c-3.185,0.387-6.371,0-9.427-1.119c-3.659-1.378-6.931-3.401-9.599-6.285
	c-4.649-4.993-9.298-10.03-13.947-15.023c-2.927-3.185-5.854-6.328-8.695-9.6c-3.831-4.348-7.533-8.825-11.321-13.215
	c-0.43-0.517-0.603-1.076-0.603-1.722c0-5.252,0-10.547,0-15.798c0-2.97,1.937-5.51,4.864-6.629c1.076-0.387,2.152-0.56,3.272-0.56
	C669.104,167.208,695.406,167.208,721.707,167.208z"/>
<path d="M1042.064,258.511c1.377-3.745,2.669-7.318,4.046-11.106c-9.556-0.086-18.898-0.172-28.497-0.215
	c1.334-4.003,2.841-7.748,4.219-11.58c1.334-3.831,2.755-7.619,4.133-11.407c1.378-3.831,2.798-7.662,4.262-11.709
	c-0.603-0.043-1.076-0.086-1.55-0.086c-5.682,0-11.364,0-17.004,0c-0.517,0-1.076,0-1.679,0c0-1.894,0-3.616,0-5.424
	c19.845,0,39.603,0,59.448,0c0,1.765,0,3.487,0,5.424c-10.46,0-20.921,0-31.381,0c-1.636,4.52-3.229,8.868-4.864,13.431
	c9.599,0,18.984,0,28.583,0c-3.96,10.934-7.878,21.739-11.881,32.673c6.586,0,13,0,19.457,0c0,1.851,0,3.616,0,5.467
	c-19.802,0-39.603,0-59.534,0c0-0.99,0-1.851,0-2.755c0-0.861,0-1.679,0-2.669C1020.669,258.511,1031.302,258.511,1042.064,258.511z
	 M1031.13,231.435c-1.205,3.444-2.497,6.758-3.659,10.288c7.017,0,13.818,0,20.706,0c1.205-3.358,2.54-6.758,3.659-10.288
	C1044.862,231.435,1038.06,231.435,1031.13,231.435z"/>
<path d="M992.344,263.978c-14.851,0-29.487,0-44.166,0c-0.301-0.99-0.387-44.683-0.129-46.534
	c1.076-0.258,42.875-0.301,44.252-0.043C992.344,232.898,992.344,248.395,992.344,263.978z M955.022,258.339
	c10.202,0,20.275,0,30.391,0c0-5.209,0-10.288,0-15.497c-3.874,0-7.662,0-11.537,0c0,1.162,0,2.238,0,3.315c0,1.119,0,2.238,0,3.358
	c0,1.076,0,2.109-0.043,3.185c-2.497,0-4.821,0-7.318,0c0-3.315,0-6.586,0-9.944c-3.917,0.043-7.662-0.086-11.451,0.086
	C955.022,248.051,955.022,253.13,955.022,258.339z M966.516,228.593c2.497,0,4.864,0,7.361,0c0,2.281,0,4.477,0,6.629
	c1.765,0.301,10.59,0.215,11.58-0.086c0-4.003,0-8.05,0-12.053c-1.291-0.344-29.315-0.301-30.391,0.043c0,4.003,0,8.05,0,12.053
	c1.162,0.301,10.159,0.301,11.451,0C966.516,232.984,966.516,230.832,966.516,228.593z"/>
<path fill="#F08300" d="M709.224,274.826c-1.162-0.043-2.54-0.086-3.874-0.215c-1.119-0.129-1.421-0.732-1.033-1.808
	c0.129-0.387,0.387-0.732,0.603-1.033c4.606-5.768,7.103-12.441,8.093-19.716c0.517-3.659,0.732-7.318,0.775-11.02
	c0-3.272,0-6.586,0-9.858c0-1.205,0.086-1.334,1.291-1.291c4.176,0.129,8.351,0.301,12.527,0.474
	c0.861,0.043,1.722,0.043,2.583,0.043c1.679,0.043,2.023,0.301,2.583,1.808c4.692,12.096,8.222,24.537,11.063,37.193
	c0.215,0.947,0.474,1.937,0.56,2.927c0.129,1.076,0,1.248-1.076,1.464c-0.56,0.129-1.162,0.172-1.722,0.172
	c-4.735,0.129-9.427,0.215-14.162,0.344c-3.788,0.086-7.576,0.172-11.321,0.258C713.916,274.654,711.677,274.74,709.224,274.826z"/>
<path d="M1115.975,206.941c0,1.765,0,3.444,0,5.209c-0.947,0.043-1.851,0.086-2.841,0.129c0,11.02,0,21.954,0,33.017
	c1.033-0.172,1.937-0.301,2.97-0.474c0.344,1.722,0.689,3.401,1.033,5.209c-1.378,0.301-2.669,0.603-4.089,0.904
	c0,4.434,0,8.825,0,13.302c-2.497,0-4.821,0-7.361,0c0-3.917,0-7.835,0-11.881c-5.424,1.076-10.676,2.066-16.057,3.142
	c-0.344-1.722-0.689-3.401-1.033-5.123c0.689-0.258,0.99-0.603,0.99-1.378c-0.043-11.967-0.043-23.934-0.043-35.901
	c0-0.215-0.043-0.43-0.086-0.775c-0.947-0.043-1.851-0.086-2.841-0.129c0-1.765,0-3.444,0-5.252
	C1096.432,206.941,1106.118,206.941,1115.975,206.941z M1096.992,212.279c0,3.229,0,6.285,0,9.513
	c2.927-0.043,5.768,0.086,8.696-0.086c0-3.229,0.043-6.285-0.043-9.384C1102.717,212.279,1099.919,212.279,1096.992,212.279z
	 M1105.644,246.888c0-2.54,0-4.95,0-7.447c-2.884,0-5.682,0-8.609,0c0,3.013,0,5.984,0,9.126
	C1099.919,248.008,1102.717,247.448,1105.644,246.888z M1105.644,227.345c-2.97,0-5.811,0-8.609,0c0,2.238,0,4.348,0,6.457
	c2.927,0,5.725,0,8.609,0C1105.644,231.607,1105.644,229.54,1105.644,227.345z"/>
<path d="M1119.032,230.918c4.649,0,9.212,0,13.861,0c0-4.046,0-7.921,0-11.967c-1.162-0.043-12.699-0.129-13.904-0.129
	c0-1.851,0-3.573,0-5.424c2.54,0,5.036,0,7.705,0c0-2.195,0-4.305,0-6.457c2.195,0,4.176,0,6.371,0c0,2.109,0,4.219,0,6.371
	c3.185,0,6.156,0,9.298,0c0-2.152,0-4.176,0-6.328c2.109,0,4.133,0,6.328,0c0,2.066,0,4.133,0,6.371c1.937,0,3.659,0,5.51,0
	c0,1.851,0,3.573,0,5.51c-4.563,0.043-9.126,0-13.646,0.043c-0.086,1.851-0.172,9.901-0.129,12.053c4.563,0,9.126,0,13.775,0
	c0,1.851,0,3.573,0,5.51c-4.089,0.086-8.136,0-12.527,0.043c5.381,9.384,10.633,18.51,15.927,27.808
	c-0.43,0.043-0.689,0.129-0.99,0.129c-2.023,0-4.046-0.043-6.07,0.043c-0.99,0.043-1.507-0.301-2.023-1.162
	c-3.659-6.5-7.404-12.957-11.106-19.457c-0.215-0.344-0.43-0.646-0.775-1.162c-0.646,1.076-1.248,2.023-1.808,2.97
	c-3.401,5.854-6.844,11.752-10.202,17.649c-0.474,0.861-1.033,1.205-2.023,1.162c-1.937-0.086-3.874-0.043-5.811-0.043
	c-0.344,0-0.689-0.043-1.248-0.043c5.381-9.298,10.676-18.467,16.143-27.895c-4.391-0.086-8.566,0-12.785-0.043
	C1119.032,234.491,1119.032,232.769,1119.032,230.918z"/>
<path d="M860.19,242.541c17.434,0,34.739,0,52.173,0c0,5.123,0,10.202,0,15.411c1.291,0,2.454,0,3.659,0c0,2.152,0,4.133,0,6.156
	c-1.033,0.301-58.2,0.301-59.534,0.043c-0.043-0.301-0.086-0.603-0.086-0.904c0-1.722,0-3.401,0-5.252c1.248,0,2.411,0,3.745,0
	C860.233,252.786,860.147,247.706,860.19,242.541z M891.141,257.865c0-3.401,0.086-6.629-0.086-9.901c-3.056,0-5.984,0-8.868,0
	c-0.301,1.636-0.215,8.911,0.086,9.901C885.2,257.865,888.084,257.865,891.141,257.865z M875.644,248.008c-3.099,0-6.027,0-8.997,0
	c0,3.358,0,6.586,0,9.858c3.056,0,5.984,0,8.997,0C875.644,254.551,875.644,251.322,875.644,248.008z M897.641,247.922
	c0,3.358,0,6.629,0,9.901c2.281,0.215,7.361,0.129,8.308-0.129c0-3.229,0-6.414,0-9.686c-0.301-0.043-0.517-0.086-0.689-0.086
	C902.763,247.922,900.267,247.922,897.641,247.922z"/>
<path d="M881.541,240.862c-0.517,0.043-0.818,0.086-1.119,0.086c-2.023,0-4.046,0-6.199,0c0-9.04,0-17.951,0-27.034
	c-6.07,0-11.967,0-17.951,0c0-1.894,0-3.616,0-5.467c6.156,0,12.182,0,18.424,0c0-2.195,0-4.305,0-6.5
	c2.238-0.043,4.262-0.086,6.457,0.043c0,2.195,0,4.262,0,6.371c4.305,0,8.48,0,12.785,0c0-2.109,0-4.133,0-6.156
	c1.076-0.344,4.52-0.43,6.457-0.172c0,2.066,0,4.133,0,6.328c5.209,0,10.245,0,15.368,0c0,1.851,0,3.573,0,5.467
	c-11.364,0-22.686,0-34.179,0C881.541,222.911,881.541,231.822,881.541,240.862z"/>
<path d="M948.049,213.742c0-3.917,0-7.792,0-11.752c2.109,0,4.133,0,6.328,0c0,2.109,0,4.176,0,6.414
	c12.828,0.086,25.527-0.043,38.312,0c0,1.808,0,3.53,0,5.209C991.828,213.871,950.201,214,948.049,213.742z"/>
<path d="M907.843,216.885c0,1.765,0,3.487,0,5.252c-0.43,0.043-0.818,0.086-1.205,0.086c-2.368,0-4.778,0-7.146,0
	c-2.368,0-3.358,0.818-3.487,3.142c-0.172,3.315-0.172,6.629-0.258,9.987c-0.043,1.808-0.129,3.573-0.172,5.467
	c-2.54,0-4.993,0-7.576,0c0-0.517,0-0.947,0-1.378c0.043-4.864,0.129-9.729,0.172-14.55c0.043-2.023,0.474-3.917,1.507-5.639
	c0.947-1.593,2.195-2.454,4.176-2.411c4.176,0.086,8.351,0.043,12.527,0.043C906.896,216.842,907.326,216.885,907.843,216.885z"/>
<path d="M940.731,264.236c-2.454,0-4.778,0-7.06,0c-0.301-1.033-0.344-22.169-0.043-23.633c2.325,0,4.692,0,7.146,0
	C940.731,248.481,940.731,256.273,940.731,264.236z"/>
<path d="M864.236,216.842c2.411,0,4.735,0,7.146,0c0,8.007,0,15.927,0,24.063c-2.325,0.086-4.692,0.043-7.146,0
	C864.236,232.855,864.236,224.934,864.236,216.842z"/>
<path d="M944.519,278.27c2.712-0.215,2.712-0.215,4.132,1.937c3.099,4.649,6.199,9.255,9.298,13.904
	c0.215,0.344,0.517,0.689,0.99,0.947c0-5.553,0-11.106,0-16.745c0.904,0,1.722,0,2.583,0c0,7.189,0,14.378,0,21.739
	c-0.818,0-1.593,0.086-2.368-0.043c-0.344-0.043-0.732-0.474-0.947-0.818c-1.55-2.281-3.056-4.563-4.563-6.844
	c-1.894-2.798-3.745-5.596-5.639-8.394c-0.215-0.301-0.43-0.56-0.775-0.99c-0.301,1.55-0.129,2.927-0.172,4.262
	c-0.043,1.421,0,2.884,0,4.305c0,1.378,0,2.798,0,4.176c0,1.378,0,2.755,0,4.219c-0.947,0-1.722,0-2.583,0
	C944.519,292.69,944.519,285.502,944.519,278.27z"/>
<path d="M857.564,293.121c0.517-0.043,0.947-0.129,1.378-0.172c0.344-0.043,0.689-0.043,1.119-0.086
	c0.086,0.301,0.215,0.517,0.258,0.775c0.43,2.023,1.722,3.185,3.616,3.788c1.937,0.603,3.917,0.603,5.811-0.129
	c1.765-0.689,2.626-2.152,2.368-3.745c-0.172-1.076-0.818-1.808-1.722-2.238c-0.904-0.387-1.851-0.689-2.798-0.99
	c-1.679-0.474-3.401-0.861-5.08-1.421c-1.593-0.517-2.927-1.421-3.702-2.97c-1.205-2.454-0.215-5.639,2.325-6.974
	c3.315-1.765,6.758-1.636,10.073,0.086c1.722,0.904,2.927,3.229,2.841,5.08c-0.775,0.086-1.593,0.129-2.368,0.215
	c-0.129-0.172-0.215-0.258-0.215-0.344c-0.517-2.583-2.238-3.745-4.692-3.831c-1.334-0.043-2.712-0.086-3.96,0.56
	c-1.464,0.732-2.152,2.109-1.722,3.53c0.301,0.947,0.947,1.55,1.851,1.808c1.378,0.43,2.755,0.775,4.133,1.162
	c1.421,0.43,2.884,0.775,4.219,1.334c1.722,0.732,2.97,2.023,3.358,3.96c0.517,2.583-0.646,5.295-3.056,6.5
	c-3.573,1.808-7.232,1.679-10.762-0.172C858.683,297.77,857.736,295.704,857.564,293.121z"/>
<path d="M914.816,278.227c0.818,0,1.593,0,2.497,0c0,2.927,0,5.811,0,8.652c1.162,0.344,10.245,0.387,11.623,0.043
	c0-2.841,0-5.682,0-8.652c0.947,0,1.765,0,2.669,0c0,7.189,0,14.378,0,21.653c-0.818,0-1.636,0-2.626,0c0-3.401,0-6.715,0-10.159
	c-3.917,0-7.662,0-11.58,0c0,3.401,0,6.758,0,10.202c-0.947,0-1.722,0-2.54,0C914.644,299.018,914.515,280.207,914.816,278.227z"/>
<path d="M1136.681,286.018c0.043-0.646,0.086-1.119,0.129-1.722c0.732,0,1.421,0,2.195,0c0.043,0.215,0.129,0.474,0.129,0.732
	c-0.043,4.778-0.043,9.513-0.086,14.292c0,0.56-0.043,1.076-0.129,1.636c-0.301,2.712-1.765,4.477-4.434,5.166
	c-2.109,0.56-4.176,0.517-6.199-0.43c-1.765-0.861-2.54-2.152-2.411-4.176c0.43,0.043,0.861,0.129,1.291,0.129
	c0.646,0,1.076,0.215,1.291,0.904c0.086,0.344,0.387,0.732,0.689,0.947c1.55,1.033,3.229,1.033,4.907,0.474
	c1.507-0.517,2.152-1.679,2.281-3.185c0.086-0.818,0.129-1.679,0.215-2.755c-0.431,0.258-0.689,0.301-0.818,0.474
	c-2.152,2.195-6.629,1.722-8.652-0.818c-2.755-3.53-2.066-9.126,0.086-11.709c2.238-2.626,6.543-2.884,8.782-0.603
	C1136.121,285.588,1136.337,285.76,1136.681,286.018z M1136.81,291.83c-0.215-1.033-0.344-2.066-0.646-3.013
	c-0.603-1.765-2.109-2.798-3.874-2.841c-1.765-0.043-3.271,0.99-3.917,2.755c-0.775,2.152-0.775,4.348,0.043,6.457
	c0.646,1.808,2.109,2.712,3.96,2.669c1.722-0.043,3.315-1.119,3.831-2.884C1136.509,294.025,1136.595,292.906,1136.81,291.83z"/>
<path d="M906.724,289.979c0.301-2.583-0.732-3.831-3.229-3.96c-0.129,0-0.258,0-0.387,0c-2.626-0.043-3.358,0.43-4.477,2.97
	c-0.732-0.086-1.464-0.215-2.325-0.301c0.129-1.421,0.732-2.497,1.808-3.358c1.033-0.818,2.238-1.119,3.487-1.291
	c1.722-0.258,3.401-0.172,5.036,0.43c1.679,0.603,2.54,1.808,2.626,3.573c0.043,1.334,0,2.712,0.043,4.046
	c0.043,1.894,0.086,3.788,0.172,5.682c0.043,0.732,0.301,1.464,0.474,2.281c-0.775,0-1.593,0-2.454,0
	c-0.215-0.56-0.387-1.162-0.603-1.808c-0.517,0.344-0.947,0.646-1.377,0.904c-2.023,1.291-4.176,1.593-6.457,1.033
	c-1.765-0.43-2.927-1.55-3.229-3.401c-0.344-2.023,0.517-3.702,2.195-4.692c1.378-0.775,2.884-0.904,4.391-1.119
	C903.926,290.667,905.389,290.538,906.724,289.979z M906.681,292.174c-1.593,0.301-3.099,0.56-4.563,0.861
	c-0.56,0.129-1.162,0.215-1.722,0.387c-1.334,0.387-1.937,1.205-1.894,2.454c0.043,1.162,0.775,2.023,2.023,2.325
	C904.442,299.148,907.369,296.349,906.681,292.174z"/>
<path d="M880.981,292.734c-0.086,2.669,1.248,4.864,3.401,5.338c2.712,0.603,4.348-0.258,5.596-2.97
	c0.775,0.086,1.593,0.129,2.54,0.215c-0.43,1.937-1.377,3.315-2.97,4.089c-2.97,1.464-5.897,1.334-8.652-0.603
	c-0.99-0.689-1.679-1.679-2.066-2.798c-0.947-2.712-0.947-5.467,0.215-8.136c1.205-2.712,3.831-4.176,7.017-4.003
	c2.841,0.172,5.252,1.98,6.113,4.735c0.387,1.291,0.689,2.583,0.43,4.133C888.773,292.734,884.856,292.734,880.981,292.734z
	 M881.111,290.581c2.884,0,5.811,0,8.695,0c0.43-2.54-1.937-4.563-3.831-4.606C883.177,285.889,881.24,287.654,881.111,290.581z"/>
<path d="M1026.394,295.058c0.775,0.086,1.55,0.172,2.454,0.258c-0.344,1.679-1.162,2.841-2.411,3.745
	c-2.97,2.195-7.964,1.593-10.288-1.291c-1.334-1.679-1.722-3.659-1.679-5.725c0.043-2.454,0.646-4.692,2.54-6.457
	c2.841-2.669,9.427-2.669,11.365,2.798c0.474,1.378,0.689,2.755,0.516,4.348c-3.917,0-7.748,0-11.58,0
	c-0.258,2.368,0.99,4.52,3.013,5.252C1022.822,298.846,1024.457,298.071,1026.394,295.058z M1026.179,290.581
	c0.043-2.841-1.765-4.649-4.477-4.606c-2.54,0.086-4.391,2.066-4.219,4.606C1020.368,290.581,1023.295,290.581,1026.179,290.581z"/>
<path d="M968.582,292.734c0.043,2.755,1.334,4.864,3.702,5.381c2.411,0.56,3.917-0.301,5.424-3.056
	c0.732,0.086,1.507,0.129,2.411,0.215c-0.086,0.387-0.086,0.689-0.172,0.947c-0.818,1.937-2.195,3.315-4.262,3.788
	c-3.013,0.689-5.854,0.387-8.05-2.109c-1.464-1.636-1.851-3.702-1.808-5.811c0.043-2.497,0.646-4.778,2.583-6.586
	c2.927-2.669,9.47-2.54,11.364,2.884c0.474,1.334,0.689,2.712,0.474,4.305c-1.937,0-3.917,0-5.897,0
	C972.5,292.734,970.562,292.734,968.582,292.734z M968.797,290.538c2.927,0,5.854,0,8.782,0c-0.129-2.927-1.808-4.606-4.477-4.563
	C970.562,286.018,968.797,287.869,968.797,290.538z"/>
<path d="M1051.276,299.965c-0.818,0-1.593,0-2.411,0c0-7.189,0-14.378,0-21.653c0.775,0,1.55,0,2.454,0c0,2.454,0,4.907,0,7.619
	c0.43-0.301,0.689-0.43,0.904-0.603c1.937-1.636,4.735-1.894,6.974-0.732c1.205,0.646,1.937,1.636,2.195,2.927
	c0.172,0.775,0.258,1.593,0.258,2.411c0.043,3.056,0,6.113,0,9.169c0,0.258-0.043,0.517-0.086,0.861c-0.818,0-1.55,0-2.454,0
	c0-0.43-0.043-0.861-0.043-1.291c0-2.712,0-5.424,0-8.093c0-0.818-0.086-1.636-0.258-2.411c-0.172-0.904-0.818-1.507-1.636-1.851
	c-2.281-0.904-4.907,0.43-5.51,2.841c-0.172,0.646-0.215,1.334-0.215,1.98c-0.043,2.497,0,4.95,0,7.447
	C1051.362,299.018,1051.319,299.449,1051.276,299.965z"/>
<path d="M1122.475,292.174c-0.086,0.689-0.172,1.334-0.215,2.023c-0.387,4.089-4.176,6.844-8.782,6.027
	c-2.798-0.474-4.563-2.195-5.381-4.864c-0.603-2.023-0.603-4.089-0.086-6.156c1.033-4.133,4.778-5.768,8.265-5.209
	c3.616,0.56,5.854,3.229,6.113,6.974c0.043,0.387,0,0.818,0,1.205C1122.432,292.174,1122.475,292.174,1122.475,292.174z
	 M1119.893,292.303c-0.129-0.99-0.172-1.851-0.387-2.669c-0.517-2.195-2.195-3.616-4.262-3.659c-2.238-0.043-3.96,1.162-4.563,3.401
	c-0.517,1.894-0.517,3.831,0.086,5.725c0.646,1.98,2.238,3.142,4.219,3.142c2.023,0,3.659-1.076,4.305-3.056
	C1119.634,294.24,1119.72,293.207,1119.893,292.303z"/>
<path d="M1097.68,292.045c-0.129,0.947-0.215,1.851-0.344,2.712c-0.603,3.444-3.659,5.338-6.457,5.51
	c-4.606,0.301-7.49-2.626-7.921-6.543c-0.172-1.636-0.129-3.229,0.301-4.821c0.947-3.358,3.745-5.252,7.49-5.123
	c3.229,0.129,5.897,2.368,6.586,5.596C1097.508,290.323,1097.551,291.227,1097.68,292.045z M1094.968,292.131
	c0.043-1.507-0.172-2.97-1.033-4.262c-1.679-2.54-5.424-2.626-7.232-0.172c-1.507,2.066-1.636,6.328-0.215,8.48
	c1.765,2.669,5.553,2.755,7.404,0.172C1094.796,295.101,1094.925,293.638,1094.968,292.131z"/>
<path d="M907.843,225.322c0,5.166,0,10.288,0,15.54c-2.066,0.086-4.133,0.043-6.328,0c-0.043-5.209,0-10.331,0-15.583
	C903.581,225.322,905.647,225.322,907.843,225.322z"/>
<path d="M1142.32,284.296c1.033,0,1.808,0,2.712,0c1.464,4.133,2.927,8.265,4.477,12.57c1.55-4.305,3.056-8.394,4.52-12.57
	c0.861,0,1.593,0,2.454,0c-0.129,0.43-0.172,0.775-0.301,1.076c-2.109,5.639-4.219,11.278-6.371,16.917
	c-0.258,0.732-0.603,1.421-0.99,2.066c-1.162,1.937-2.884,2.497-5.209,1.722c-0.086-0.646-0.172-1.334-0.258-2.195
	c0.517,0.043,0.947,0.086,1.378,0.086c1.248,0.043,2.195-0.43,2.669-1.636c0.172-0.43,0.301-0.861,0.474-1.248
	c0.344-0.646,0.258-1.248,0-1.937c-1.679-4.305-3.271-8.652-4.907-13C1142.794,285.588,1142.578,285.028,1142.32,284.296z"/>
<path d="M1066.385,284.253c0.775,0,1.378,0,2.152,0c0.086,0.603,0.129,1.205,0.215,1.98c0.301-0.258,0.516-0.387,0.646-0.603
	c1.636-1.851,4.778-2.368,7.232-1.119c1.464,0.732,2.195,1.937,2.368,3.53c0.086,1.033,0.086,2.066,0.086,3.099
	c0,2.411,0,4.864,0,7.275c0,0.474,0,0.947,0,1.507c-0.904,0-1.636,0-2.54,0c0-0.56,0-1.033,0-1.507c0-2.626,0-5.209,0-7.835
	c0-0.689-0.043-1.334-0.172-2.023c-0.258-1.464-1.162-2.281-2.626-2.454c-2.238-0.258-4.649,0.732-4.778,4.003
	c-0.086,2.411-0.043,4.864-0.086,7.275c0,0.818,0,1.593,0,2.497c-0.904,0-1.679,0-2.54,0
	C1066.385,294.714,1066.385,289.548,1066.385,284.253z"/>
<path d="M1015.46,278.27c0.043,0.387,0.043,0.646,0.043,0.904c0,0.387,0,0.818,0,1.378c-1.248,0-2.454,0.043-3.659,0.043
	c-1.162,0-2.325,0-3.616,0c0,6.543,0,12.914,0,19.328c-0.947,0-1.722,0-2.712,0c-0.043-2.109,0-4.176,0-6.285c0-2.152,0-4.305,0-6.5
	c0-2.109,0-4.219,0-6.5c-2.411-0.172-4.778,0.043-7.189-0.129c0-0.818,0-1.507,0-2.281
	C1004.053,278.27,1009.692,278.27,1015.46,278.27z"/>
<path d="M940.559,236.213c-2.368,0-4.649,0-6.931,0c-0.301-0.947-0.387-10.159-0.086-12.01c2.282,0,4.606,0,6.931,0
	C940.731,225.15,940.817,234.362,940.559,236.213z"/>
<path d="M1043.398,294.326c0.775,0.086,1.507,0.215,2.238,0.301c0.172,2.368-2.281,5.381-5.424,5.639
	c-4.52,0.387-7.705-2.282-7.964-6.801c-0.086-1.464-0.043-3.013,0.301-4.391c0.904-3.831,4.348-5.897,8.222-5.123
	c2.626,0.517,4.176,2.023,4.692,4.735c-0.732,0.129-1.464,0.258-2.238,0.387c-0.172-0.301-0.344-0.56-0.43-0.861
	c-0.56-1.378-1.55-2.195-3.056-2.281c-1.722-0.129-3.099,0.474-4.046,1.937c-0.646,0.99-0.775,2.109-0.904,3.229
	c-0.172,1.507-0.043,2.97,0.474,4.391c0.646,1.808,2.152,2.755,4.047,2.712c1.937-0.043,3.099-0.947,3.745-2.884
	C1043.183,295.015,1043.269,294.757,1043.398,294.326z"/>
<path d="M933.327,218.348c0-3.659,0-7.189,0-10.848c2.411,0,4.735,0,7.189,0c0,3.616,0,7.189,0,10.848
	C938.148,218.348,935.823,218.348,933.327,218.348z"/>
<path d="M987.394,278.743c0,1.98,0,3.616,0,5.381c0.904,0.043,1.722,0.129,2.626,0.172c0,0.603,0,1.162,0,1.808
	c-0.861,0.043-1.679,0.086-2.626,0.172c0,3.487,0,6.888,0,10.288c0,0.732,0.474,1.162,1.205,1.205c0.43,0.043,0.904,0,1.421,0
	c0.129,0.689,0.258,1.334,0.387,2.066c-1.291,0.474-2.54,0.474-3.745,0.086c-0.947-0.344-1.593-1.033-1.679-2.066
	c-0.129-1.162-0.172-2.325-0.215-3.487c-0.043-2.195,0-4.391,0-6.629c0-0.43,0-0.904,0-1.421c-0.646-0.086-1.205-0.129-1.851-0.172
	c0-0.603,0-1.162,0-1.808c0.56-0.043,1.119-0.129,1.808-0.172c0-0.904,0.086-1.851,0.043-2.755
	c-0.043-0.775,0.172-1.291,0.904-1.636C986.145,279.518,986.619,279.174,987.394,278.743z"/>
<path d="M1103.707,299.965c-0.775,0-1.507,0-2.281,0c0-7.232,0-14.378,0-21.653c0.732,0,1.464,0,2.195,0
	C1103.922,279.174,1104.008,297.985,1103.707,299.965z"/>
<path d="M936.986,284.296c0.775,0,1.507,0,2.411,0c0,5.252,0,10.417,0,15.669c-0.861,0-1.593,0-2.282,0
	C936.814,299.018,936.727,286.492,936.986,284.296z"/>
<path d="M939.267,281.068c-0.775,0-1.464,0-2.281,0c0-0.904,0-1.808,0-2.798c0.732,0,1.464,0,2.281,0
	C939.267,279.174,939.267,280.035,939.267,281.068z"/>
<path fill="#00A0E9" d="M634.365,230.875v99.137c0,0,1.808,5.768,7.835,5.897c6.027,0.129,158.413,0.258,158.413,0.258
	s4.993-0.947,7.662-6.328c0.129-0.258,0-14.808,0-14.808l-35.643-45.415c0,0-9.686-12.914-21.523,1.894
	c0.129,0-10.331,15.196-13.732,17.994c-0.129,0.258-16.272,19.5-36.848-0.387l-58.027-63.193c0,0-3.229-3.745-5.381-4.176
	c0,0.129-2.238-1.464-2.755,8.05C634.58,230.1,634.365,230.875,634.365,230.875z"/>
</svg>
