<?xml version="1.0" encoding="utf-8"?>
<!DOCTYPE svg PUBLIC "-//W3C//DTD SVG 1.1//EN" "http://www.w3.org/Graphics/SVG/1.1/DTD/svg11.dtd">
<svg version="1.1" id="图层_1" xmlns="http://www.w3.org/2000/svg" xmlns:xlink="http://www.w3.org/1999/xlink" x="0px" y="0px"
	 width="523.235px" height="168.96px" viewBox="634.365 167.208 523.235 168.96"
	 enable-background="new 634.365 167.208 523.235 168.96" xml:space="preserve">
<path fill="#F08300" d="M721.706,167.208c26.261,0,52.476,0,78.733,0c1.938,0,3.616,0.561,5.166,1.637
	c1.979,1.377,2.927,3.27,2.927,5.768c-0.043,7.921,0,15.841,0,23.763c0,22.644,0,45.285,0,67.929c0,2.28,0.303,4.563,0.389,6.887
	c0.043,1.723-0.086,3.402-0.174,5.123c0,0.301-0.129,0.604-0.258,0.904c-0.43,1.075-1.076,1.422-2.107,0.946
	c-0.775-0.345-1.552-0.774-2.152-1.377c-1.722-1.638-3.444-3.315-4.993-5.08c-4.262-4.821-8.437-9.729-12.742-14.509
	c-11.579-12.913-23.719-25.225-36.028-37.493c-3.015-3.013-6.07-6.026-9.126-8.996c-2.454-2.369-5.295-4.177-8.609-5.08
	c-4.648-1.291-8.997-0.344-13.129,1.894c-4.478,2.412-8.266,5.77-11.623,9.557c-3.831,4.35-7.576,8.781-11.278,13.258
	c-2.236,2.67-4.906,4.521-8.394,4.951c-3.187,0.387-6.371,0-9.427-1.119c-3.659-1.379-6.933-3.4-9.601-6.285
	c-4.647-4.992-9.298-10.029-13.946-15.023c-2.928-3.186-5.854-6.328-8.694-9.6c-3.831-4.348-7.533-8.824-11.321-13.215
	c-0.43-0.518-0.603-1.076-0.603-1.723c0-5.252,0-10.547,0-15.799c0-2.969,1.937-5.51,4.862-6.629c1.076-0.388,2.152-0.56,3.272-0.56
	C669.104,167.208,695.406,167.208,721.706,167.208z"/>
<path fill="#FFFFFF" d="M1042.064,258.511c1.377-3.744,2.669-7.318,4.046-11.105c-9.556-0.086-18.896-0.172-28.497-0.215
	c1.334-4.004,2.841-7.748,4.22-11.58c1.334-3.832,2.754-7.619,4.134-11.407c1.378-3.83,2.798-7.662,4.262-11.709
	c-0.604-0.043-1.076-0.087-1.55-0.087c-5.684,0-11.364,0-17.006,0c-0.517,0-1.074,0-1.679,0c0-1.893,0-3.614,0-5.424
	c19.845,0,39.604,0,59.448,0c0,1.767,0,3.488,0,5.424c-10.46,0-20.921,0-31.381,0c-1.636,4.521-3.229,8.869-4.864,13.433
	c9.599,0,18.984,0,28.583,0c-3.96,10.935-7.878,21.738-11.881,32.673c6.586,0,13,0,19.457,0c0,1.852,0,3.616,0,5.467
	c-19.802,0-39.604,0-59.534,0c0-0.99,0-1.851,0-2.754c0-0.861,0-1.681,0-2.67C1020.669,258.511,1031.302,258.511,1042.064,258.511z
	 M1031.131,231.435c-1.205,3.443-2.497,6.758-3.659,10.289c7.017,0,13.816,0,20.706,0c1.205-3.359,2.54-6.76,3.659-10.289
	C1044.862,231.435,1038.06,231.435,1031.131,231.435z"/>
<path fill="#FFFFFF" d="M992.344,263.978c-14.853,0-29.487,0-44.166,0c-0.301-0.99-0.389-44.684-0.129-46.533
	c1.074-0.258,42.875-0.301,44.252-0.043C992.344,232.897,992.344,248.396,992.344,263.978z M955.022,258.339
	c10.202,0,20.275,0,30.391,0c0-5.209,0-10.287,0-15.498c-3.874,0-7.662,0-11.537,0c0,1.162,0,2.238,0,3.314c0,1.119,0,2.238,0,3.359
	c0,1.075,0,2.108-0.043,3.186c-2.495,0-4.819,0-7.316,0c0-3.314,0-6.588,0-9.945c-3.917,0.043-7.662-0.086-11.451,0.086
	C955.022,248.052,955.022,253.13,955.022,258.339z M966.516,228.593c2.497,0,4.864,0,7.361,0c0,2.281,0,4.477,0,6.629
	c1.765,0.301,10.59,0.215,11.58-0.086c0-4.004,0-8.051,0-12.053c-1.291-0.346-29.315-0.303-30.393,0.043c0,4.002,0,8.051,0,12.053
	c1.162,0.301,10.159,0.301,11.451,0C966.516,232.983,966.516,230.832,966.516,228.593z"/>
<path fill="#F08300" d="M709.224,274.826c-1.162-0.044-2.54-0.087-3.874-0.216c-1.119-0.129-1.421-0.731-1.033-1.807
	c0.129-0.389,0.387-0.732,0.604-1.033c4.604-5.77,7.103-12.44,8.093-19.717c0.517-3.658,0.73-7.318,0.773-11.02
	c0-3.271,0-6.588,0-9.859c0-1.203,0.086-1.334,1.291-1.289c4.178,0.129,8.353,0.301,12.527,0.473
	c0.861,0.043,1.722,0.043,2.583,0.043c1.679,0.043,2.023,0.302,2.583,1.81c4.692,12.097,8.222,24.537,11.063,37.192
	c0.216,0.947,0.475,1.937,0.561,2.927c0.129,1.075,0,1.248-1.076,1.465c-0.56,0.129-1.162,0.173-1.722,0.173
	c-4.735,0.129-9.427,0.215-14.162,0.344c-3.788,0.086-7.576,0.172-11.321,0.258C713.917,274.653,711.677,274.739,709.224,274.826z"
	/>
<path fill="#FFFFFF" d="M1115.975,206.94c0,1.767,0,3.445,0,5.209c-0.947,0.043-1.853,0.086-2.841,0.129c0,11.021,0,21.955,0,33.019
	c1.032-0.172,1.937-0.301,2.97-0.476c0.344,1.724,0.689,3.402,1.033,5.209c-1.378,0.302-2.669,0.605-4.089,0.904
	c0,4.435,0,8.826,0,13.303c-2.497,0-4.821,0-7.361,0c0-3.918,0-7.836,0-11.881c-5.424,1.076-10.676,2.064-16.057,3.142
	c-0.346-1.722-0.689-3.399-1.033-5.123c0.688-0.258,0.99-0.603,0.99-1.377c-0.043-11.968-0.043-23.935-0.043-35.901
	c0-0.216-0.043-0.431-0.087-0.775c-0.946-0.043-1.852-0.086-2.842-0.129c0-1.764,0-3.443,0-5.252
	C1096.432,206.94,1106.117,206.94,1115.975,206.94z M1096.991,212.278c0,3.229,0,6.285,0,9.515c2.928-0.043,5.77,0.086,8.696-0.086
	c0-3.229,0.043-6.285-0.043-9.386C1102.718,212.278,1099.919,212.278,1096.991,212.278z M1105.644,246.888c0-2.539,0-4.949,0-7.447
	c-2.884,0-5.682,0-8.609,0c0,3.015,0,5.984,0,9.127C1099.919,248.007,1102.718,247.448,1105.644,246.888z M1105.644,227.345
	c-2.97,0-5.812,0-8.609,0c0,2.238,0,4.348,0,6.457c2.929,0,5.727,0,8.609,0C1105.644,231.606,1105.644,229.541,1105.644,227.345z"/>
<path fill="#FFFFFF" d="M1119.031,230.917c4.649,0,9.212,0,13.861,0c0-4.045,0-7.92,0-11.967
	c-1.162-0.043-12.699-0.129-13.904-0.129c0-1.852,0-3.572,0-5.424c2.54,0,5.036,0,7.705,0c0-2.195,0-4.305,0-6.457
	c2.195,0,4.176,0,6.371,0c0,2.108,0,4.219,0,6.371c3.185,0,6.156,0,9.298,0c0-2.152,0-4.176,0-6.328c2.109,0,4.133,0,6.328,0
	c0,2.065,0,4.133,0,6.371c1.937,0,3.659,0,5.51,0c0,1.852,0,3.572,0,5.51c-4.563,0.043-9.126,0-13.646,0.043
	c-0.087,1.852-0.173,9.9-0.13,12.053c4.563,0,9.125,0,13.774,0c0,1.852,0,3.574,0,5.512c-4.089,0.086-8.136,0-12.526,0.043
	c5.382,9.383,10.634,18.51,15.928,27.807c-0.432,0.043-0.689,0.13-0.99,0.13c-2.021,0-4.046-0.043-6.07,0.043
	c-0.988,0.043-1.507-0.302-2.021-1.162c-3.659-6.5-7.404-12.957-11.106-19.457c-0.215-0.345-0.43-0.646-0.773-1.162
	c-0.646,1.076-1.248,2.022-1.81,2.972c-3.399,5.854-6.844,11.752-10.201,17.647c-0.475,0.86-1.032,1.205-2.022,1.162
	c-1.938-0.086-3.874-0.043-5.812-0.043c-0.345,0-0.688-0.043-1.248-0.043c5.382-9.298,10.677-18.468,16.144-27.896
	c-4.392-0.086-8.566,0-12.785-0.043C1119.031,234.491,1119.031,232.769,1119.031,230.917z"/>
<path fill="#FFFFFF" d="M860.19,242.541c17.434,0,34.739,0,52.173,0c0,5.123,0,10.203,0,15.412c1.291,0,2.454,0,3.659,0
	c0,2.151,0,4.133,0,6.155c-1.033,0.302-58.2,0.302-59.534,0.043c-0.043-0.301-0.086-0.604-0.086-0.903c0-1.724,0-3.401,0-5.252
	c1.248,0,2.411,0,3.745,0C860.233,252.787,860.147,247.707,860.19,242.541z M891.141,257.864c0-3.399,0.086-6.629-0.086-9.899
	c-3.058,0-5.984,0-8.868,0c-0.301,1.636-0.215,8.91,0.086,9.899C885.199,257.864,888.085,257.864,891.141,257.864z M875.644,248.007
	c-3.099,0-6.027,0-8.997,0c0,3.357,0,6.588,0,9.857c3.056,0,5.984,0,8.997,0C875.644,254.552,875.644,251.321,875.644,248.007z
	 M897.641,247.921c0,3.357,0,6.631,0,9.9c2.281,0.217,7.361,0.131,8.308-0.129c0-3.229,0-6.414,0-9.687
	c-0.301-0.043-0.517-0.086-0.688-0.086C902.763,247.921,900.267,247.921,897.641,247.921z"/>
<path fill="#FFFFFF" d="M881.542,240.862c-0.519,0.043-0.818,0.086-1.119,0.086c-2.023,0-4.047,0-6.199,0c0-9.04,0-17.95,0-27.034
	c-6.07,0-11.967,0-17.951,0c0-1.894,0-3.615,0-5.468c6.156,0,12.182,0,18.424,0c0-2.194,0-4.305,0-6.5
	c2.238-0.043,4.264-0.086,6.457,0.043c0,2.195,0,4.263,0,6.371c4.305,0,8.48,0,12.785,0c0-2.108,0-4.133,0-6.155
	c1.076-0.345,4.52-0.431,6.457-0.172c0,2.065,0,4.133,0,6.327c5.209,0,10.245,0,15.368,0c0,1.853,0,3.574,0,5.468
	c-11.364,0-22.688,0-34.181,0C881.542,222.912,881.542,231.821,881.542,240.862z"/>
<path fill="#FFFFFF" d="M948.05,213.742c0-3.916,0-7.791,0-11.753c2.107,0,4.133,0,6.328,0c0,2.109,0,4.177,0,6.414
	c12.826,0.086,25.525-0.043,38.312,0c0,1.81,0,3.531,0,5.209C991.827,213.871,950.2,214,948.05,213.742z"/>
<path fill="#FFFFFF" d="M907.844,216.886c0,1.764,0,3.486,0,5.252c-0.432,0.043-0.818,0.086-1.205,0.086c-2.368,0-4.778,0-7.146,0
	s-3.356,0.816-3.485,3.141c-0.174,3.316-0.174,6.63-0.26,9.988c-0.043,1.808-0.129,3.572-0.172,5.467c-2.54,0-4.992,0-7.576,0
	c0-0.518,0-0.946,0-1.379c0.045-4.862,0.131-9.729,0.174-14.549c0.043-2.022,0.474-3.918,1.507-5.641
	c0.947-1.592,2.194-2.453,4.176-2.41c4.176,0.086,8.353,0.043,12.527,0.043C906.896,216.841,907.325,216.886,907.844,216.886z"/>
<path fill="#FFFFFF" d="M940.731,264.235c-2.454,0-4.778,0-7.06,0c-0.303-1.032-0.346-22.168-0.043-23.633c2.323,0,4.69,0,7.146,0
	C940.731,248.481,940.731,256.272,940.731,264.235z"/>
<path fill="#FFFFFF" d="M864.236,216.841c2.411,0,4.735,0,7.146,0c0,8.008,0,15.928,0,24.063c-2.325,0.086-4.692,0.043-7.146,0
	C864.236,232.854,864.236,224.935,864.236,216.841z"/>
<path fill="#FFFFFF" d="M944.519,278.271c2.712-0.215,2.712-0.215,4.132,1.937c3.1,4.649,6.199,9.256,9.298,13.903
	c0.215,0.345,0.519,0.689,0.99,0.947c0-5.553,0-11.104,0-16.744c0.904,0,1.722,0,2.583,0c0,7.188,0,14.377,0,21.738
	c-0.818,0-1.593,0.086-2.368-0.043c-0.344-0.043-0.73-0.475-0.947-0.818c-1.55-2.28-3.056-4.563-4.563-6.844
	c-1.894-2.799-3.745-5.596-5.639-8.395c-0.217-0.301-0.432-0.561-0.775-0.99c-0.301,1.551-0.129,2.928-0.172,4.264
	c-0.043,1.42,0,2.883,0,4.305c0,1.378,0,2.798,0,4.177c0,1.377,0,2.754,0,4.22c-0.947,0-1.722,0-2.583,0
	C944.519,292.69,944.519,285.501,944.519,278.271z"/>
<path fill="#FFFFFF" d="M857.564,293.121c0.517-0.043,0.947-0.129,1.378-0.173c0.344-0.043,0.689-0.043,1.119-0.086
	c0.086,0.302,0.215,0.519,0.258,0.775c0.43,2.023,1.724,3.186,3.616,3.789c1.937,0.602,3.917,0.602,5.811-0.131
	c1.767-0.688,2.626-2.15,2.368-3.744c-0.172-1.076-0.816-1.809-1.722-2.238c-0.904-0.387-1.851-0.688-2.798-0.99
	c-1.68-0.473-3.401-0.86-5.08-1.42c-1.593-0.518-2.927-1.422-3.702-2.971c-1.205-2.453-0.215-5.639,2.325-6.975
	c3.313-1.766,6.758-1.637,10.073,0.086c1.722,0.904,2.927,3.229,2.841,5.08c-0.775,0.086-1.594,0.129-2.368,0.215
	c-0.129-0.172-0.215-0.258-0.215-0.344c-0.519-2.582-2.238-3.744-4.692-3.83c-1.334-0.043-2.712-0.086-3.96,0.561
	c-1.464,0.73-2.152,2.107-1.722,3.529c0.301,0.947,0.947,1.551,1.851,1.809c1.378,0.431,2.755,0.773,4.133,1.162
	c1.421,0.43,2.886,0.773,4.221,1.334c1.722,0.73,2.97,2.021,3.356,3.959c0.519,2.584-0.646,5.295-3.056,6.5
	c-3.573,1.81-7.232,1.68-10.763-0.172C858.683,297.771,857.736,295.705,857.564,293.121z"/>
<path fill="#FFFFFF" d="M914.816,278.228c0.818,0,1.593,0,2.497,0c0,2.926,0,5.812,0,8.65c1.162,0.346,10.245,0.389,11.623,0.043
	c0-2.84,0-5.682,0-8.65c0.947,0,1.765,0,2.669,0c0,7.188,0,14.377,0,21.652c-0.818,0-1.636,0-2.626,0c0-3.4,0-6.715,0-10.158
	c-3.917,0-7.662,0-11.58,0c0,3.4,0,6.758,0,10.201c-0.947,0-1.722,0-2.54,0C914.644,299.019,914.515,280.207,914.816,278.228z"/>
<path fill="#FFFFFF" d="M1136.681,286.019c0.043-0.646,0.086-1.119,0.129-1.723c0.732,0,1.421,0,2.195,0
	c0.043,0.215,0.129,0.475,0.129,0.73c-0.043,4.779-0.043,9.514-0.086,14.293c0,0.561-0.043,1.076-0.13,1.637
	c-0.302,2.711-1.766,4.477-4.435,5.166c-2.108,0.561-4.176,0.518-6.199-0.432c-1.765-0.859-2.54-2.15-2.409-4.176
	c0.43,0.043,0.859,0.129,1.291,0.129c0.646,0,1.074,0.215,1.291,0.903c0.086,0.345,0.387,0.731,0.688,0.947
	c1.55,1.032,3.229,1.032,4.907,0.476c1.507-0.519,2.15-1.681,2.28-3.188c0.087-0.817,0.13-1.678,0.216-2.754
	c-0.433,0.259-0.689,0.302-0.818,0.474c-2.152,2.194-6.629,1.724-8.652-0.817c-2.755-3.529-2.064-9.125,0.087-11.709
	c2.237-2.625,6.543-2.883,8.781-0.603C1136.12,285.587,1136.338,285.761,1136.681,286.019z M1136.81,291.83
	c-0.215-1.033-0.344-2.065-0.646-3.013c-0.604-1.766-2.109-2.799-3.875-2.842s-3.271,0.99-3.916,2.756
	c-0.775,2.15-0.775,4.349,0.043,6.457c0.646,1.808,2.107,2.711,3.959,2.668c1.723-0.043,3.314-1.119,3.832-2.883
	C1136.51,294.024,1136.595,292.905,1136.81,291.83z"/>
<path fill="#FFFFFF" d="M906.724,289.979c0.301-2.584-0.732-3.832-3.229-3.961c-0.129,0-0.258,0-0.387,0
	c-2.626-0.043-3.357,0.43-4.477,2.971c-0.732-0.086-1.466-0.215-2.325-0.301c0.129-1.422,0.73-2.498,1.808-3.358
	c1.033-0.817,2.238-1.119,3.487-1.291c1.722-0.259,3.401-0.172,5.036,0.431c1.679,0.604,2.54,1.809,2.626,3.573
	c0.043,1.334,0,2.711,0.043,4.045c0.043,1.896,0.086,3.789,0.172,5.683c0.043,0.731,0.301,1.465,0.474,2.281
	c-0.773,0-1.593,0-2.454,0c-0.215-0.56-0.387-1.162-0.603-1.808c-0.518,0.344-0.947,0.646-1.377,0.903
	c-2.023,1.291-4.176,1.593-6.457,1.033c-1.765-0.432-2.927-1.551-3.229-3.402c-0.344-2.022,0.519-3.7,2.195-4.69
	c1.378-0.774,2.884-0.903,4.393-1.118C903.927,290.667,905.389,290.539,906.724,289.979z M906.681,292.173
	c-1.593,0.303-3.099,0.561-4.563,0.861c-0.56,0.129-1.162,0.215-1.722,0.387c-1.334,0.389-1.937,1.205-1.894,2.455
	c0.043,1.162,0.773,2.021,2.021,2.324C904.442,299.147,907.368,296.349,906.681,292.173z"/>
<path fill="#FFFFFF" d="M880.981,292.733c-0.086,2.67,1.248,4.865,3.401,5.338c2.712,0.605,4.348-0.258,5.596-2.969
	c0.775,0.086,1.593,0.129,2.54,0.215c-0.43,1.937-1.377,3.314-2.97,4.088c-2.972,1.466-5.897,1.334-8.652-0.602
	c-0.99-0.689-1.679-1.68-2.065-2.799c-0.946-2.713-0.946-5.467,0.216-8.137c1.205-2.713,3.831-4.176,7.017-4.002
	c2.841,0.172,5.252,1.979,6.113,4.734c0.387,1.291,0.688,2.582,0.43,4.133C888.773,292.733,884.856,292.733,880.981,292.733z
	 M881.111,290.582c2.884,0,5.813,0,8.695,0c0.43-2.541-1.938-4.563-3.831-4.606C883.177,285.89,881.24,287.653,881.111,290.582z"/>
<path fill="#FFFFFF" d="M1026.394,295.058c0.775,0.086,1.55,0.172,2.454,0.258c-0.344,1.681-1.162,2.842-2.411,3.746
	c-2.97,2.193-7.964,1.592-10.288-1.291c-1.334-1.68-1.722-3.66-1.679-5.727c0.043-2.453,0.646-4.691,2.54-6.457
	c2.841-2.668,9.427-2.668,11.365,2.799c0.474,1.379,0.688,2.756,0.516,4.348c-3.917,0-7.748,0-11.58,0
	c-0.258,2.369,0.99,4.521,3.013,5.252C1022.822,298.847,1024.458,298.071,1026.394,295.058z M1026.179,290.582
	c0.043-2.843-1.767-4.649-4.479-4.606c-2.54,0.086-4.391,2.065-4.219,4.606C1020.367,290.582,1023.296,290.582,1026.179,290.582z"/>
<path fill="#FFFFFF" d="M968.581,292.733c0.045,2.756,1.334,4.865,3.702,5.381c2.411,0.563,3.917-0.301,5.425-3.055
	c0.731,0.086,1.508,0.129,2.41,0.215c-0.086,0.388-0.086,0.688-0.172,0.947c-0.816,1.937-2.193,3.314-4.262,3.787
	c-3.013,0.688-5.854,0.387-8.05-2.109c-1.464-1.635-1.853-3.701-1.81-5.811c0.043-2.498,0.646-4.777,2.583-6.586
	c2.929-2.67,9.472-2.541,11.364,2.885c0.475,1.334,0.689,2.711,0.475,4.305c-1.938,0-3.918,0-5.896,0
	C972.501,292.733,970.562,292.733,968.581,292.733z M968.798,290.539c2.927,0,5.854,0,8.78,0c-0.129-2.929-1.808-4.606-4.477-4.563
	C970.562,286.019,968.798,287.869,968.798,290.539z"/>
<path fill="#FFFFFF" d="M1051.276,299.964c-0.818,0-1.593,0-2.411,0c0-7.188,0-14.377,0-21.652c0.775,0,1.55,0,2.454,0
	c0,2.455,0,4.908,0,7.619c0.43-0.301,0.689-0.43,0.904-0.604c1.937-1.637,4.734-1.895,6.974-0.73
	c1.205,0.645,1.938,1.635,2.195,2.926c0.172,0.775,0.258,1.594,0.258,2.412c0.043,3.055,0,6.111,0,9.168
	c0,0.258-0.043,0.519-0.086,0.861c-0.818,0-1.55,0-2.454,0c0-0.43-0.043-0.861-0.043-1.291c0-2.713,0-5.424,0-8.094
	c0-0.816-0.086-1.637-0.258-2.41c-0.172-0.904-0.818-1.508-1.636-1.852c-2.281-0.904-4.907,0.43-5.512,2.842
	c-0.172,0.646-0.215,1.334-0.215,1.979c-0.043,2.498,0,4.95,0,7.446C1051.362,299.019,1051.319,299.448,1051.276,299.964z"/>
<path fill="#FFFFFF" d="M1122.475,292.173c-0.086,0.689-0.172,1.335-0.215,2.023c-0.387,4.09-4.176,6.844-8.782,6.027
	c-2.798-0.476-4.563-2.195-5.381-4.865c-0.604-2.021-0.604-4.088-0.086-6.154c1.032-4.135,4.776-5.77,8.265-5.209
	c3.616,0.561,5.854,3.229,6.113,6.975c0.043,0.387,0,0.816,0,1.203C1122.432,292.173,1122.475,292.173,1122.475,292.173z
	 M1119.893,292.304c-0.129-0.99-0.172-1.852-0.387-2.67c-0.519-2.195-2.195-3.615-4.264-3.658c-2.236-0.043-3.96,1.162-4.563,3.4
	c-0.518,1.895-0.518,3.83,0.086,5.725c0.646,1.98,2.238,3.144,4.219,3.144c2.023,0,3.659-1.076,4.307-3.058
	C1119.635,294.239,1119.72,293.207,1119.893,292.304z"/>
<path fill="#FFFFFF" d="M1097.68,292.044c-0.129,0.947-0.215,1.852-0.344,2.713c-0.604,3.443-3.659,5.338-6.457,5.51
	c-4.606,0.301-7.49-2.625-7.922-6.543c-0.173-1.637-0.13-3.229,0.302-4.82c0.946-3.358,3.745-5.252,7.489-5.123
	c3.229,0.13,5.896,2.367,6.587,5.597C1097.509,290.323,1097.552,291.228,1097.68,292.044z M1094.969,292.13
	c0.043-1.506-0.172-2.969-1.033-4.262c-1.679-2.539-5.424-2.625-7.232-0.172c-1.507,2.066-1.636,6.328-0.215,8.48
	c1.767,2.668,5.554,2.754,7.404,0.172C1094.797,295.101,1094.926,293.638,1094.969,292.13z"/>
<path fill="#FFFFFF" d="M907.844,225.321c0,5.166,0,10.289,0,15.541c-2.066,0.086-4.133,0.043-6.328,0
	c-0.043-5.209,0-10.332,0-15.584C903.58,225.321,905.647,225.321,907.844,225.321z"/>
<path fill="#FFFFFF" d="M1142.32,284.296c1.033,0,1.808,0,2.712,0c1.464,4.133,2.928,8.266,4.479,12.568
	c1.55-4.305,3.056-8.393,4.52-12.568c0.861,0,1.594,0,2.454,0c-0.129,0.43-0.172,0.773-0.301,1.076
	c-2.109,5.639-4.219,11.277-6.371,16.916c-0.258,0.732-0.604,1.422-0.99,2.066c-1.162,1.938-2.884,2.496-5.209,1.723
	c-0.086-0.646-0.172-1.336-0.258-2.195c0.517,0.043,0.947,0.086,1.378,0.086c1.248,0.043,2.195-0.43,2.669-1.637
	c0.172-0.43,0.301-0.859,0.476-1.248c0.344-0.646,0.258-1.248,0-1.938c-1.681-4.306-3.271-8.65-4.907-13
	C1142.794,285.587,1142.577,285.028,1142.32,284.296z"/>
<path fill="#FFFFFF" d="M1066.385,284.253c0.773,0,1.378,0,2.15,0c0.088,0.604,0.131,1.205,0.217,1.979
	c0.301-0.258,0.516-0.387,0.646-0.603c1.636-1.853,4.778-2.368,7.232-1.118c1.464,0.731,2.193,1.936,2.368,3.528
	c0.086,1.032,0.086,2.065,0.086,3.101c0,2.41,0,4.862,0,7.274c0,0.474,0,0.946,0,1.506c-0.904,0-1.638,0-2.54,0
	c0-0.56,0-1.032,0-1.506c0-2.627,0-5.209,0-7.836c0-0.688-0.043-1.334-0.173-2.022c-0.259-1.463-1.161-2.281-2.625-2.453
	c-2.238-0.258-4.649,0.731-4.778,4.002c-0.086,2.412-0.043,4.865-0.086,7.274c0,0.817,0,1.595,0,2.498c-0.904,0-1.679,0-2.54,0
	C1066.385,294.714,1066.385,289.548,1066.385,284.253z"/>
<path fill="#FFFFFF" d="M1015.461,278.271c0.043,0.387,0.043,0.646,0.043,0.902c0,0.389,0,0.818,0,1.379
	c-1.248,0-2.454,0.043-3.659,0.043c-1.162,0-2.325,0-3.616,0c0,6.543,0,12.914,0,19.328c-0.947,0-1.722,0-2.712,0
	c-0.043-2.109,0-4.176,0-6.285c0-2.152,0-4.305,0-6.5c0-2.109,0-4.219,0-6.5c-2.411-0.172-4.778,0.043-7.189-0.129
	c0-0.818,0-1.508,0-2.281C1004.053,278.271,1009.692,278.271,1015.461,278.271z"/>
<path fill="#FFFFFF" d="M940.559,236.212c-2.368,0-4.649,0-6.931,0c-0.303-0.945-0.389-10.158-0.087-12.01c2.281,0,4.605,0,6.932,0
	C940.731,225.149,940.817,234.362,940.559,236.212z"/>
<path fill="#FFFFFF" d="M1043.398,294.326c0.775,0.086,1.507,0.215,2.238,0.301c0.172,2.369-2.281,5.381-5.424,5.64
	c-4.521,0.387-7.705-2.281-7.964-6.802c-0.088-1.463-0.043-3.012,0.301-4.392c0.904-3.829,4.348-5.895,8.222-5.122
	c2.626,0.519,4.176,2.022,4.692,4.735c-0.732,0.129-1.464,0.258-2.238,0.387c-0.172-0.301-0.344-0.561-0.43-0.86
	c-0.562-1.379-1.552-2.194-3.058-2.28c-1.722-0.129-3.099,0.473-4.046,1.938c-0.646,0.988-0.773,2.107-0.904,3.229
	c-0.172,1.508-0.043,2.971,0.476,4.391c0.646,1.81,2.15,2.757,4.047,2.714c1.937-0.044,3.099-0.947,3.745-2.886
	C1043.183,295.015,1043.269,294.757,1043.398,294.326z"/>
<path fill="#FFFFFF" d="M933.326,218.349c0-3.66,0-7.188,0-10.85c2.411,0,4.735,0,7.189,0c0,3.615,0,7.189,0,10.85
	C938.148,218.349,935.823,218.349,933.326,218.349z"/>
<path fill="#FFFFFF" d="M987.394,278.744c0,1.979,0,3.614,0,5.381c0.904,0.043,1.722,0.129,2.626,0.172c0,0.603,0,1.162,0,1.808
	c-0.861,0.043-1.679,0.086-2.626,0.172c0,3.488,0,6.889,0,10.289c0,0.731,0.474,1.162,1.205,1.205c0.43,0.043,0.904,0,1.421,0
	c0.129,0.688,0.258,1.334,0.387,2.065c-1.291,0.474-2.54,0.474-3.745,0.086c-0.945-0.344-1.593-1.032-1.679-2.065
	c-0.129-1.162-0.172-2.326-0.215-3.486c-0.043-2.195,0-4.393,0-6.631c0-0.43,0-0.902,0-1.42c-0.646-0.086-1.205-0.129-1.852-0.172
	c0-0.604,0-1.162,0-1.81c0.561-0.043,1.118-0.129,1.809-0.172c0-0.903,0.086-1.851,0.043-2.754
	c-0.043-0.774,0.172-1.291,0.904-1.638C986.145,279.519,986.618,279.173,987.394,278.744z"/>
<path fill="#FFFFFF" d="M1103.708,299.964c-0.775,0-1.509,0-2.281,0c0-7.23,0-14.377,0-21.652c0.73,0,1.464,0,2.193,0
	C1103.923,279.173,1104.009,297.985,1103.708,299.964z"/>
<path fill="#FFFFFF" d="M936.986,284.296c0.775,0,1.507,0,2.411,0c0,5.252,0,10.416,0,15.668c-0.861,0-1.593,0-2.282,0
	C936.814,299.019,936.727,286.492,936.986,284.296z"/>
<path fill="#FFFFFF" d="M939.267,281.067c-0.775,0-1.464,0-2.281,0c0-0.903,0-1.807,0-2.797c0.732,0,1.464,0,2.281,0
	C939.267,279.173,939.267,280.035,939.267,281.067z"/>
<path fill="#00A0E9" d="M634.365,230.875v99.138c0,0,1.81,5.768,7.835,5.897c6.027,0.129,158.413,0.258,158.413,0.258
	s4.993-0.946,7.662-6.328c0.129-0.258,0-14.81,0-14.81l-35.643-45.414c0,0-9.688-12.913-21.523,1.895
	c0.129,0-10.331,15.196-13.73,17.993c-0.131,0.259-16.272,19.5-36.85-0.387l-58.025-63.193c0,0-3.229-3.743-5.383-4.176
	c0,0.129-2.236-1.463-2.755,8.051C634.579,230.101,634.365,230.875,634.365,230.875z"/>
</svg>
