<?xml version="1.0" encoding="utf-8"?>
<!-- Generator: Adobe Illustrator 19.0.0, SVG Export Plug-In . SVG Version: 6.00 Build 0)  -->
<svg version="1.1" id="图层_1" xmlns="http://www.w3.org/2000/svg" xmlns:xlink="http://www.w3.org/1999/xlink" x="0px" y="0px"
	 viewBox="597 -148.1 1421.7 521.9" style="enable-background:new 597 -148.1 1421.7 521.9;" xml:space="preserve">
<style type="text/css">
	path{fill:#FFF}
	.st0{fill:#F08300}
	.st1{fill:#00A0E9}
</style>
<path class="st0" d="M886.7-74.6c61,0,121.9,0,182.9,0c4.5,0,8.4,1.3,12,3.8c4.6,3.2,6.8,7.6,6.8,13.4c-0.1,18.4,0,36.8,0,55.2
	c0,52.6,0,105.2,0,157.8c0,5.3,0.7,10.6,0.9,16c0.1,4-0.2,7.9-0.4,11.9c0,0.7-0.3,1.4-0.6,2.1c-1,2.5-2.5,3.3-4.9,2.2
	c-1.8-0.8-3.6-1.8-5-3.2c-4-3.8-8-7.7-11.6-11.8c-9.9-11.2-19.6-22.6-29.6-33.7c-26.9-30-55.1-58.6-83.7-87.1
	c-7-7-14.1-14-21.2-20.9c-5.7-5.5-12.3-9.7-20-11.8c-10.8-3-20.9-0.8-30.5,4.4c-10.4,5.6-19.2,13.4-27,22.2
	c-8.9,10.1-17.6,20.4-26.2,30.8c-5.2,6.2-11.4,10.5-19.5,11.5c-7.4,0.9-14.8,0-21.9-2.6c-8.5-3.2-16.1-7.9-22.3-14.6
	c-10.8-11.6-21.6-23.3-32.4-34.9c-6.8-7.4-13.6-14.7-20.2-22.3C703.4,3.7,694.8-6.7,686-16.9c-1-1.2-1.4-2.5-1.4-4
	c0-12.2,0-24.5,0-36.7c0-6.9,4.5-12.8,11.3-15.4c2.5-0.9,5-1.3,7.6-1.3C764.5-74.6,825.6-74.6,886.7-74.6z"/>
<path d="M1630.9,137.5c3.2-8.7,6.2-17,9.4-25.8c-22.2-0.2-43.9-0.4-66.2-0.5c3.1-9.3,6.6-18,9.8-26.9c3.1-8.9,6.4-17.7,9.6-26.5
	c3.2-8.9,6.5-17.8,9.9-27.2c-1.4-0.1-2.5-0.2-3.6-0.2c-13.2,0-26.4,0-39.5,0c-1.2,0-2.5,0-3.9,0c0-4.4,0-8.4,0-12.6
	c46.1,0,92,0,138.1,0c0,4.1,0,8.1,0,12.6c-24.3,0-48.6,0-72.9,0c-3.8,10.5-7.5,20.6-11.3,31.2c22.3,0,44.1,0,66.4,0
	c-9.2,25.4-18.3,50.5-27.6,75.9c15.3,0,30.2,0,45.2,0c0,4.3,0,8.4,0,12.7c-46,0-92,0-138.3,0c0-2.3,0-4.3,0-6.4c0-2,0-3.9,0-6.2
	C1581.2,137.5,1605.9,137.5,1630.9,137.5z M1605.5,74.6c-2.8,8-5.8,15.7-8.5,23.9c16.3,0,32.1,0,48.1,0c2.8-7.8,5.9-15.7,8.5-23.9
	C1637.4,74.6,1621.6,74.6,1605.5,74.6z"/>
<path d="M1515.4,150.2c-34.5,0-68.5,0-102.6,0c-0.7-2.3-0.9-103.8-0.3-108.1c2.5-0.6,99.6-0.7,102.8-0.1
	C1515.4,78,1515.4,114,1515.4,150.2z M1428.7,137.1c23.7,0,47.1,0,70.6,0c0-12.1,0-23.9,0-36c-9,0-17.8,0-26.8,0c0,2.7,0,5.2,0,7.7
	c0,2.6,0,5.2,0,7.8c0,2.5,0,4.9-0.1,7.4c-5.8,0-11.2,0-17,0c0-7.7,0-15.3,0-23.1c-9.1,0.1-17.8-0.2-26.6,0.2
	C1428.7,113.2,1428.7,125,1428.7,137.1z M1455.4,68c5.8,0,11.3,0,17.1,0c0,5.3,0,10.4,0,15.4c4.1,0.7,24.6,0.5,26.9-0.2
	c0-9.3,0-18.7,0-28c-3-0.8-68.1-0.7-70.6,0.1c0,9.3,0,18.7,0,28c2.7,0.7,23.6,0.7,26.6,0C1455.4,78.2,1455.4,73.2,1455.4,68z"/>
<path class="st0" d="M857.7,175.4c-2.7-0.1-5.9-0.2-9-0.5c-2.6-0.3-3.3-1.7-2.4-4.2c0.3-0.9,0.9-1.7,1.4-2.4
	c10.7-13.4,16.5-28.9,18.8-45.8c1.2-8.5,1.7-17,1.8-25.6c0-7.6,0-15.3,0-22.9c0-2.8,0.2-3.1,3-3c9.7,0.3,19.4,0.7,29.1,1.1
	c2,0.1,4,0.1,6,0.1c3.9,0.1,4.7,0.7,6,4.2c10.9,28.1,19.1,57,25.7,86.4c0.5,2.2,1.1,4.5,1.3,6.8c0.3,2.5,0,2.9-2.5,3.4
	c-1.3,0.3-2.7,0.4-4,0.4c-11,0.3-21.9,0.5-32.9,0.8c-8.8,0.2-17.6,0.4-26.3,0.6C868.6,175,863.4,175.2,857.7,175.4z"/>
<path d="M1802.6,17.7c0,4.1,0,8,0,12.1c-2.2,0.1-4.3,0.2-6.6,0.3c0,25.6,0,51,0,76.7c2.4-0.4,4.5-0.7,6.9-1.1
	c0.8,4,1.6,7.9,2.4,12.1c-3.2,0.7-6.2,1.4-9.5,2.1c0,10.3,0,20.5,0,30.9c-5.8,0-11.2,0-17.1,0c0-9.1,0-18.2,0-27.6
	c-12.6,2.5-24.8,4.8-37.3,7.3c-0.8-4-1.6-7.9-2.4-11.9c1.6-0.6,2.3-1.4,2.3-3.2c-0.1-27.8-0.1-55.6-0.1-83.4c0-0.5-0.1-1-0.2-1.8
	c-2.2-0.1-4.3-0.2-6.6-0.3c0-4.1,0-8,0-12.2C1757.2,17.7,1779.7,17.7,1802.6,17.7z M1758.5,30.1c0,7.5,0,14.6,0,22.1
	c6.8-0.1,13.4,0.2,20.2-0.2c0-7.5,0.1-14.6-0.1-21.8C1771.8,30.1,1765.3,30.1,1758.5,30.1z M1778.6,110.5c0-5.9,0-11.5,0-17.3
	c-6.7,0-13.2,0-20,0c0,7,0,13.9,0,21.2C1765.3,113.1,1771.8,111.8,1778.6,110.5z M1778.6,65.1c-6.9,0-13.5,0-20,0c0,5.2,0,10.1,0,15
	c6.8,0,13.3,0,20,0C1778.6,75,1778.6,70.2,1778.6,65.1z"/>
<path d="M1809.7,73.4c10.8,0,21.4,0,32.2,0c0-9.4,0-18.4,0-27.8c-2.7-0.1-29.5-0.3-32.3-0.3c0-4.3,0-8.3,0-12.6c5.9,0,11.7,0,17.9,0
	c0-5.1,0-10,0-15c5.1,0,9.7,0,14.8,0c0,4.9,0,9.8,0,14.8c7.4,0,14.3,0,21.6,0c0-5,0-9.7,0-14.7c4.9,0,9.6,0,14.7,0
	c0,4.8,0,9.6,0,14.8c4.5,0,8.5,0,12.8,0c0,4.3,0,8.3,0,12.8c-10.6,0.1-21.2,0-31.7,0.1c-0.2,4.3-0.4,23-0.3,28c10.6,0,21.2,0,32,0
	c0,4.3,0,8.3,0,12.8c-9.5,0.2-18.9,0-29.1,0.1c12.5,21.8,24.7,43,37,64.6c-1,0.1-1.6,0.3-2.3,0.3c-4.7,0-9.4-0.1-14.1,0.1
	c-2.3,0.1-3.5-0.7-4.7-2.7c-8.5-15.1-17.2-30.1-25.8-45.2c-0.5-0.8-1-1.5-1.8-2.7c-1.5,2.5-2.9,4.7-4.2,6.9
	c-7.9,13.6-15.9,27.3-23.7,41c-1.1,2-2.4,2.8-4.7,2.7c-4.5-0.2-9-0.1-13.5-0.1c-0.8,0-1.6-0.1-2.9-0.1
	c12.5-21.6,24.8-42.9,37.5-64.8c-10.2-0.2-19.9,0-29.7-0.1C1809.7,81.7,1809.7,77.7,1809.7,73.4z"/>
<path d="M1208.4,100.4c40.5,0,80.7,0,121.2,0c0,11.9,0,23.7,0,35.8c3,0,5.7,0,8.5,0c0,5,0,9.6,0,14.3c-2.4,0.7-135.2,0.7-138.3,0.1
	c-0.1-0.7-0.2-1.4-0.2-2.1c0-4,0-7.9,0-12.2c2.9,0,5.6,0,8.7,0C1208.5,124.2,1208.3,112.4,1208.4,100.4z M1280.3,136
	c0-7.9,0.2-15.4-0.2-23c-7.1,0-13.9,0-20.6,0c-0.7,3.8-0.5,20.7,0.2,23C1266.5,136,1273.2,136,1280.3,136z M1244.3,113.1
	c-7.2,0-14,0-20.9,0c0,7.8,0,15.3,0,22.9c7.1,0,13.9,0,20.9,0C1244.3,128.3,1244.3,120.8,1244.3,113.1z M1295.4,112.9
	c0,7.8,0,15.4,0,23c5.3,0.5,17.1,0.3,19.3-0.3c0-7.5,0-14.9,0-22.5c-0.7-0.1-1.2-0.2-1.6-0.2
	C1307.3,112.9,1301.5,112.9,1295.4,112.9z"/>
<path d="M1258,96.5c-1.2,0.1-1.9,0.2-2.6,0.2c-4.7,0-9.4,0-14.4,0c0-21,0-41.7,0-62.8c-14.1,0-27.8,0-41.7,0c0-4.4,0-8.4,0-12.7
	c14.3,0,28.3,0,42.8,0c0-5.1,0-10,0-15.1c5.2-0.1,9.9-0.2,15,0.1c0,5.1,0,9.9,0,14.8c10,0,19.7,0,29.7,0c0-4.9,0-9.6,0-14.3
	c2.5-0.8,10.5-1,15-0.4c0,4.8,0,9.6,0,14.7c12.1,0,23.8,0,35.7,0c0,4.3,0,8.3,0,12.7c-26.4,0-52.7,0-79.4,0
	C1258,54.8,1258,75.5,1258,96.5z"/>
<path d="M1412.5,33.5c0-9.1,0-18.1,0-27.3c4.9,0,9.6,0,14.7,0c0,4.9,0,9.7,0,14.9c29.8,0.2,59.3-0.1,89,0c0,4.2,0,8.2,0,12.1
	C1514.2,33.8,1417.5,34.1,1412.5,33.5z"/>
<path d="M1319.1,40.8c0,4.1,0,8.1,0,12.2c-1,0.1-1.9,0.2-2.8,0.2c-5.5,0-11.1,0-16.6,0s-7.8,1.9-8.1,7.3c-0.4,7.7-0.4,15.4-0.6,23.2
	c-0.1,4.2-0.3,8.3-0.4,12.7c-5.9,0-11.6,0-17.6,0c0-1.2,0-2.2,0-3.2c0.1-11.3,0.3-22.6,0.4-33.8c0.1-4.7,1.1-9.1,3.5-13.1
	c2.2-3.7,5.1-5.7,9.7-5.6c9.7,0.2,19.4,0.1,29.1,0.1C1316.9,40.7,1317.9,40.8,1319.1,40.8z"/>
<path d="M1395.5,150.8c-5.7,0-11.1,0-16.4,0c-0.7-2.4-0.8-51.5-0.1-54.9c5.4,0,10.9,0,16.6,0
	C1395.5,114.2,1395.5,132.3,1395.5,150.8z"/>
<path d="M1217.8,40.7c5.6,0,11,0,16.6,0c0,18.6,0,37,0,55.9c-5.4,0.2-10.9,0.1-16.6,0C1217.8,77.9,1217.8,59.5,1217.8,40.7z"/>
<path d="M1404.3,183.4c6.3-0.5,6.3-0.5,9.6,4.5c7.2,10.8,14.4,21.5,21.6,32.3c0.5,0.8,1.2,1.6,2.3,2.2c0-12.9,0-25.8,0-38.9
	c2.1,0,4,0,6,0c0,16.7,0,33.4,0,50.5c-1.9,0-3.7,0.2-5.5-0.1c-0.8-0.1-1.7-1.1-2.2-1.9c-3.6-5.3-7.1-10.6-10.6-15.9
	c-4.4-6.5-8.7-13-13.1-19.5c-0.5-0.7-1-1.3-1.8-2.3c-0.7,3.6-0.3,6.8-0.4,9.9c-0.1,3.3,0,6.7,0,10c0,3.2,0,6.5,0,9.7s0,6.4,0,9.8
	c-2.2,0-4,0-6,0C1404.3,216.9,1404.3,200.2,1404.3,183.4z"/>
<path d="M1202.3,217.9c1.2-0.1,2.2-0.3,3.2-0.4c0.8-0.1,1.6-0.1,2.6-0.2c0.2,0.7,0.5,1.2,0.6,1.8c1,4.7,4,7.4,8.4,8.8
	c4.5,1.4,9.1,1.4,13.5-0.3c4.1-1.6,6.1-5,5.5-8.7c-0.4-2.5-1.9-4.2-4-5.2c-2.1-0.9-4.3-1.6-6.5-2.3c-3.9-1.1-7.9-2-11.8-3.3
	c-3.7-1.2-6.8-3.3-8.6-6.9c-2.8-5.7-0.5-13.1,5.4-16.2c7.7-4.1,15.7-3.8,23.4,0.2c4,2.1,6.8,7.5,6.6,11.8c-1.8,0.2-3.7,0.3-5.5,0.5
	c-0.3-0.4-0.5-0.6-0.5-0.8c-1.2-6-5.2-8.7-10.9-8.9c-3.1-0.1-6.3-0.2-9.2,1.3c-3.4,1.7-5,4.9-4,8.2c0.7,2.2,2.2,3.6,4.3,4.2
	c3.2,1,6.4,1.8,9.6,2.7c3.3,1,6.7,1.8,9.8,3.1c4,1.7,6.9,4.7,7.8,9.2c1.2,6-1.5,12.3-7.1,15.1c-8.3,4.2-16.8,3.9-25-0.4
	C1204.9,228.7,1202.7,223.9,1202.3,217.9z"/>
<path d="M1335.3,183.3c1.9,0,3.7,0,5.8,0c0,6.8,0,13.5,0,20.1c2.7,0.8,23.8,0.9,27,0.1c0-6.6,0-13.2,0-20.1c2.2,0,4.1,0,6.2,0
	c0,16.7,0,33.4,0,50.3c-1.9,0-3.8,0-6.1,0c0-7.9,0-15.6,0-23.6c-9.1,0-17.8,0-26.9,0c0,7.9,0,15.7,0,23.7c-2.2,0-4,0-5.9,0
	C1334.9,231.6,1334.6,187.9,1335.3,183.3z"/>
<path d="M1850.7,201.4c0.1-1.5,0.2-2.6,0.3-4c1.7,0,3.3,0,5.1,0c0.1,0.5,0.3,1.1,0.3,1.7c-0.1,11.1-0.1,22.1-0.2,33.2
	c0,1.3-0.1,2.5-0.3,3.8c-0.7,6.3-4.1,10.4-10.3,12c-4.9,1.3-9.7,1.2-14.4-1c-4.1-2-5.9-5-5.6-9.7c1,0.1,2,0.3,3,0.3
	c1.5,0,2.5,0.5,3,2.1c0.2,0.8,0.9,1.7,1.6,2.2c3.6,2.4,7.5,2.4,11.4,1.1c3.5-1.2,5-3.9,5.3-7.4c0.2-1.9,0.3-3.9,0.5-6.4
	c-1,0.6-1.6,0.7-1.9,1.1c-5,5.1-15.4,4-20.1-1.9c-6.4-8.2-4.8-21.2,0.2-27.2c5.2-6.1,15.2-6.7,20.4-1.4
	C1849.4,200.4,1849.9,200.8,1850.7,201.4z M1851,214.9c-0.5-2.4-0.8-4.8-1.5-7c-1.4-4.1-4.9-6.5-9-6.6s-7.6,2.3-9.1,6.4
	c-1.8,5-1.8,10.1,0.1,15c1.5,4.2,4.9,6.3,9.2,6.2c4-0.1,7.7-2.6,8.9-6.7C1850.3,220,1850.5,217.4,1851,214.9z"/>
<path d="M1316.5,210.6c0.7-6-1.7-8.9-7.5-9.2c-0.3,0-0.6,0-0.9,0c-6.1-0.1-7.8,1-10.4,6.9c-1.7-0.2-3.4-0.5-5.4-0.7
	c0.3-3.3,1.7-5.8,4.2-7.8c2.4-1.9,5.2-2.6,8.1-3c4-0.6,7.9-0.4,11.7,1c3.9,1.4,5.9,4.2,6.1,8.3c0.1,3.1,0,6.3,0.1,9.4
	c0.1,4.4,0.2,8.8,0.4,13.2c0.1,1.7,0.7,3.4,1.1,5.3c-1.8,0-3.7,0-5.7,0c-0.5-1.3-0.9-2.7-1.4-4.2c-1.2,0.8-2.2,1.5-3.2,2.1
	c-4.7,3-9.7,3.7-15,2.4c-4.1-1-6.8-3.6-7.5-7.9c-0.8-4.7,1.2-8.6,5.1-10.9c3.2-1.8,6.7-2.1,10.2-2.6
	C1310,212.2,1313.4,211.9,1316.5,210.6z M1316.4,215.7c-3.7,0.7-7.2,1.3-10.6,2c-1.3,0.3-2.7,0.5-4,0.9c-3.1,0.9-4.5,2.8-4.4,5.7
	c0.1,2.7,1.8,4.7,4.7,5.4C1311.2,231.9,1318,225.4,1316.4,215.7z"/>
<path d="M1256.7,217c-0.2,6.2,2.9,11.3,7.9,12.4c6.3,1.4,10.1-0.6,13-6.9c1.8,0.2,3.7,0.3,5.9,0.5c-1,4.5-3.2,7.7-6.9,9.5
	c-6.9,3.4-13.7,3.1-20.1-1.4c-2.3-1.6-3.9-3.9-4.8-6.5c-2.2-6.3-2.2-12.7,0.5-18.9c2.8-6.3,8.9-9.7,16.3-9.3
	c6.6,0.4,12.2,4.6,14.2,11c0.9,3,1.6,6,1,9.6C1274.8,217,1265.7,217,1256.7,217z M1257,212c6.7,0,13.5,0,20.2,0
	c1-5.9-4.5-10.6-8.9-10.7C1261.8,201.1,1257.3,205.2,1257,212z"/>
<path d="M1594.5,222.4c1.8,0.2,3.6,0.4,5.7,0.6c-0.8,3.9-2.7,6.6-5.6,8.7c-6.9,5.1-18.5,3.7-23.9-3c-3.1-3.9-4-8.5-3.9-13.3
	c0.1-5.7,1.5-10.9,5.9-15c6.6-6.2,21.9-6.2,26.4,6.5c1.1,3.2,1.6,6.4,1.2,10.1c-9.1,0-18,0-26.9,0c-0.6,5.5,2.3,10.5,7,12.2
	C1586.2,231.2,1590,229.4,1594.5,222.4z M1594,212c0.1-6.6-4.1-10.8-10.4-10.7c-5.9,0.2-10.2,4.8-9.8,10.7
	C1580.5,212,1587.3,212,1594,212z"/>
<path d="M1460.2,217c0.1,6.4,3.1,11.3,8.6,12.5c5.6,1.3,9.1-0.7,12.6-7.1c1.7,0.2,3.5,0.3,5.6,0.5c-0.2,0.9-0.2,1.6-0.4,2.2
	c-1.9,4.5-5.1,7.7-9.9,8.8c-7,1.6-13.6,0.9-18.7-4.9c-3.4-3.8-4.3-8.6-4.2-13.5c0.1-5.8,1.5-11.1,6-15.3c6.8-6.2,22-5.9,26.4,6.7
	c1.1,3.1,1.6,6.3,1.1,10c-4.5,0-9.1,0-13.7,0C1469.3,217,1464.8,217,1460.2,217z M1460.7,211.9c6.8,0,13.6,0,20.4,0
	c-0.3-6.8-4.2-10.7-10.4-10.6C1464.8,201.4,1460.7,205.7,1460.7,211.9z"/>
<path d="M1652.3,233.8c-1.9,0-3.7,0-5.6,0c0-16.7,0-33.4,0-50.3c1.8,0,3.6,0,5.7,0c0,5.7,0,11.4,0,17.7c1-0.7,1.6-1,2.1-1.4
	c4.5-3.8,11-4.4,16.2-1.7c2.8,1.5,4.5,3.8,5.1,6.8c0.4,1.8,0.6,3.7,0.6,5.6c0.1,7.1,0,14.2,0,21.3c0,0.6-0.1,1.2-0.2,2
	c-1.9,0-3.6,0-5.7,0c0-1-0.1-2-0.1-3c0-6.3,0-12.6,0-18.8c0-1.9-0.2-3.8-0.6-5.6c-0.4-2.1-1.9-3.5-3.8-4.3c-5.3-2.1-11.4,1-12.8,6.6
	c-0.4,1.5-0.5,3.1-0.5,4.6c-0.1,5.8,0,11.5,0,17.3C1652.5,231.6,1652.4,232.6,1652.3,233.8z"/>
<path d="M1817.7,215.7c-0.2,1.6-0.4,3.1-0.5,4.7c-0.9,9.5-9.7,15.9-20.4,14c-6.5-1.1-10.6-5.1-12.5-11.3c-1.4-4.7-1.4-9.5-0.2-14.3
	c2.4-9.6,11.1-13.4,19.2-12.1c8.4,1.3,13.6,7.5,14.2,16.2c0.1,0.9,0,1.9,0,2.8C1817.6,215.7,1817.7,215.7,1817.7,215.7z M1811.7,216
	c-0.3-2.3-0.4-4.3-0.9-6.2c-1.2-5.1-5.1-8.4-9.9-8.5c-5.2-0.1-9.2,2.7-10.6,7.9c-1.2,4.4-1.2,8.9,0.2,13.3c1.5,4.6,5.2,7.3,9.8,7.3
	c4.7,0,8.5-2.5,10-7.1C1811.1,220.5,1811.3,218.1,1811.7,216z"/>
<path d="M1760.1,215.4c-0.3,2.2-0.5,4.3-0.8,6.3c-1.4,8-8.5,12.4-15,12.8c-10.7,0.7-17.4-6.1-18.4-15.2c-0.4-3.8-0.3-7.5,0.7-11.2
	c2.2-7.8,8.7-12.2,17.4-11.9c7.5,0.3,13.7,5.5,15.3,13C1759.7,211.4,1759.8,213.5,1760.1,215.4z M1753.8,215.6
	c0.1-3.5-0.4-6.9-2.4-9.9c-3.9-5.9-12.6-6.1-16.8-0.4c-3.5,4.8-3.8,14.7-0.5,19.7c4.1,6.2,12.9,6.4,17.2,0.4
	C1753.4,222.5,1753.7,219.1,1753.8,215.6z"/>
<path d="M1319.1,60.4c0,12,0,23.9,0,36.1c-4.8,0.2-9.6,0.1-14.7,0c-0.1-12.1,0-24,0-36.2C1309.2,60.4,1314,60.4,1319.1,60.4z"/>
<path d="M1863.8,197.4c2.4,0,4.2,0,6.3,0c3.4,9.6,6.8,19.2,10.4,29.2c3.6-10,7.1-19.5,10.5-29.2c2,0,3.7,0,5.7,0
	c-0.3,1-0.4,1.8-0.7,2.5c-4.9,13.1-9.8,26.2-14.8,39.3c-0.6,1.7-1.4,3.3-2.3,4.8c-2.7,4.5-6.7,5.8-12.1,4c-0.2-1.5-0.4-3.1-0.6-5.1
	c1.2,0.1,2.2,0.2,3.2,0.2c2.9,0.1,5.1-1,6.2-3.8c0.4-1,0.7-2,1.1-2.9c0.8-1.5,0.6-2.9,0-4.5c-3.9-10-7.6-20.1-11.4-30.2
	C1864.9,200.4,1864.4,199.1,1863.8,197.4z"/>
<path d="M1687.4,197.3c1.8,0,3.2,0,5,0c0.2,1.4,0.3,2.8,0.5,4.6c0.7-0.6,1.2-0.9,1.5-1.4c3.8-4.3,11.1-5.5,16.8-2.6
	c3.4,1.7,5.1,4.5,5.5,8.2c0.2,2.4,0.2,4.8,0.2,7.2c0,5.6,0,11.3,0,16.9c0,1.1,0,2.2,0,3.5c-2.1,0-3.8,0-5.9,0c0-1.3,0-2.4,0-3.5
	c0-6.1,0-12.1,0-18.2c0-1.6-0.1-3.1-0.4-4.7c-0.6-3.4-2.7-5.3-6.1-5.7c-5.2-0.6-10.8,1.7-11.1,9.3c-0.2,5.6-0.1,11.3-0.2,16.9
	c0,1.9,0,3.7,0,5.8c-2.1,0-3.9,0-5.9,0C1687.4,221.6,1687.4,209.6,1687.4,197.3z"/>
<path d="M1569.1,183.4c0.1,0.9,0.1,1.5,0.1,2.1c0,0.9,0,1.9,0,3.2c-2.9,0-5.7,0.1-8.5,0.1c-2.7,0-5.4,0-8.4,0c0,15.2,0,30,0,44.9
	c-2.2,0-4,0-6.3,0c-0.1-4.9,0-9.7,0-14.6c0-5,0-10,0-15.1c0-4.9,0-9.8,0-15.1c-5.6-0.4-11.1,0.1-16.7-0.3c0-1.9,0-3.5,0-5.3
	C1542.6,183.4,1555.7,183.4,1569.1,183.4z"/>
<path d="M1395.1,85.7c-5.5,0-10.8,0-16.1,0c-0.7-2.2-0.9-23.6-0.2-27.9c5.3,0,10.7,0,16.1,0C1395.5,60,1395.7,81.4,1395.1,85.7z"/>
<path d="M1634,220.7c1.8,0.2,3.5,0.5,5.2,0.7c0.4,5.5-5.3,12.5-12.6,13.1c-10.5,0.9-17.9-5.3-18.5-15.8c-0.2-3.4-0.1-7,0.7-10.2
	c2.1-8.9,10.1-13.7,19.1-11.9c6.1,1.2,9.7,4.7,10.9,11c-1.7,0.3-3.4,0.6-5.2,0.9c-0.4-0.7-0.8-1.3-1-2c-1.3-3.2-3.6-5.1-7.1-5.3
	c-4-0.3-7.2,1.1-9.4,4.5c-1.5,2.3-1.8,4.9-2.1,7.5c-0.4,3.5-0.1,6.9,1.1,10.2c1.5,4.2,5,6.4,9.4,6.3c4.5-0.1,7.2-2.2,8.7-6.7
	C1633.5,222.3,1633.7,221.7,1634,220.7z"/>
<path d="M1378.3,44.2c0-8.5,0-16.7,0-25.2c5.6,0,11,0,16.7,0c0,8.4,0,16.7,0,25.2C1389.5,44.2,1384.1,44.2,1378.3,44.2z"/>
<path d="M1503.9,184.5c0,4.6,0,8.4,0,12.5c2.1,0.1,4,0.3,6.1,0.4c0,1.4,0,2.7,0,4.2c-2,0.1-3.9,0.2-6.1,0.4c0,8.1,0,16,0,23.9
	c0,1.7,1.1,2.7,2.8,2.8c1,0.1,2.1,0,3.3,0c0.3,1.6,0.6,3.1,0.9,4.8c-3,1.1-5.9,1.1-8.7,0.2c-2.2-0.8-3.7-2.4-3.9-4.8
	c-0.3-2.7-0.4-5.4-0.5-8.1c-0.1-5.1,0-10.2,0-15.4c0-1,0-2.1,0-3.3c-1.5-0.2-2.8-0.3-4.3-0.4c0-1.4,0-2.7,0-4.2
	c1.3-0.1,2.6-0.3,4.2-0.4c0-2.1,0.2-4.3,0.1-6.4c-0.1-1.8,0.4-3,2.1-3.8C1501,186.3,1502.1,185.5,1503.9,184.5z"/>
<path d="M1774.1,233.8c-1.8,0-3.5,0-5.3,0c0-16.8,0-33.4,0-50.3c1.7,0,3.4,0,5.1,0C1774.6,185.5,1774.8,229.2,1774.1,233.8z"/>
<path d="M1386.8,197.4c1.8,0,3.5,0,5.6,0c0,12.2,0,24.2,0,36.4c-2,0-3.7,0-5.3,0C1386.4,231.6,1386.2,202.5,1386.8,197.4z"/>
<path d="M1392.1,189.9c-1.8,0-3.4,0-5.3,0c0-2.1,0-4.2,0-6.5c1.7,0,3.4,0,5.3,0C1392.1,185.5,1392.1,187.5,1392.1,189.9z"/>
<path class="st1" d="M683.8,73.3v230.3c0,0,4.2,13.4,18.2,13.7s368,0.6,368,0.6s11.6-2.2,17.8-14.7c0.3-0.6,0-34.4,0-34.4
	L1005,163.3c0,0-22.5-30-50,4.4c0.3,0-24,35.3-31.9,41.8c-0.3,0.6-37.8,45.3-85.6-0.9L702.7,61.8c0,0-7.5-8.7-12.5-9.7
	c0,0.3-5.2-3.4-6.4,18.7C684.3,71.5,683.8,73.3,683.8,73.3z"/>
</svg>
