<?xml version="1.0" encoding="utf-8"?>
<!-- Generator: Adobe Illustrator 17.0.0, SVG Export Plug-In . SVG Version: 6.00 Build 0)  -->
<!DOCTYPE svg PUBLIC "-//W3C//DTD SVG 1.1//EN" "http://www.w3.org/Graphics/SVG/1.1/DTD/svg11.dtd">
<svg version="1.1" id="图层_1" xmlns="http://www.w3.org/2000/svg" xmlns:xlink="http://www.w3.org/1999/xlink" x="0px" y="0px"
	 width="759px" height="714.9px" viewBox="379 160 759 714.9" style="enable-background:new 379 160 759 714.9;"
	 xml:space="preserve">
<style type="text/css">
	.st0{fill:#F08300;}
	.st1{fill:#00A0E9;}
</style>
<g>
	<path d="M845.2,737.3c3.2-8.7,6.2-17,9.4-25.8c-22.2-0.2-43.9-0.4-66.2-0.5c3.1-9.3,6.6-18,9.8-26.9c3.1-8.9,6.4-17.7,9.6-26.5
		c3.2-8.9,6.5-17.8,9.9-27.2c-1.4-0.1-2.5-0.2-3.6-0.2c-13.2,0-26.4,0-39.5,0c-1.2,0-2.5,0-3.9,0c0-4.4,0-8.4,0-12.6
		c46.1,0,92,0,138.1,0c0,4.1,0,8.1,0,12.6c-24.3,0-48.6,0-72.9,0c-3.8,10.5-7.5,20.6-11.3,31.2c22.3,0,44.1,0,66.4,0
		c-9.2,25.4-18.3,50.5-27.6,75.9c15.3,0,30.2,0,45.2,0c0,4.3,0,8.4,0,12.7c-46,0-92,0-138.3,0c0-2.3,0-4.3,0-6.4c0-2,0-3.9,0-6.2
		C795.5,737.3,820.2,737.3,845.2,737.3z M819.8,674.4c-2.8,8-5.8,15.7-8.5,23.9c16.3,0,32.1,0,48.1,0c2.8-7.8,5.9-15.7,8.5-23.9
		C851.7,674.4,835.9,674.4,819.8,674.4z"/>
	<path d="M729.7,750c-34.5,0-68.5,0-102.6,0c-0.7-2.3-0.9-103.8-0.3-108.1c2.5-0.6,99.6-0.7,102.8-0.1
		C729.7,677.8,729.7,713.8,729.7,750z M643,736.9c23.7,0,47.1,0,70.6,0c0-12.1,0-23.9,0-36c-9,0-17.8,0-26.8,0c0,2.7,0,5.2,0,7.7
		c0,2.6,0,5.2,0,7.8c0,2.5,0,4.9-0.1,7.4c-5.8,0-11.2,0-17,0c0-7.7,0-15.3,0-23.1c-9.1,0.1-17.8-0.2-26.6,0.2
		C643,713,643,724.8,643,736.9z M669.7,667.8c5.8,0,11.3,0,17.1,0c0,5.3,0,10.4,0,15.4c4.1,0.7,24.6,0.5,26.9-0.2c0-9.3,0-18.7,0-28
		c-3-0.8-68.1-0.7-70.6,0.1c0,9.3,0,18.7,0,28c2.7,0.7,23.6,0.7,26.6,0C669.7,678,669.7,673,669.7,667.8z"/>
	<path d="M1016.9,617.5c0,4.1,0,8,0,12.1c-2.2,0.1-4.3,0.2-6.6,0.3c0,25.6,0,51,0,76.7c2.4-0.4,4.5-0.7,6.9-1.1
		c0.8,4,1.6,7.9,2.4,12.1c-3.2,0.7-6.2,1.4-9.5,2.1c0,10.3,0,20.5,0,30.9c-5.8,0-11.2,0-17.1,0c0-9.1,0-18.2,0-27.6
		c-12.6,2.5-24.8,4.8-37.3,7.3c-0.8-4-1.6-7.9-2.4-11.9c1.6-0.6,2.3-1.4,2.3-3.2c-0.1-27.8-0.1-55.6-0.1-83.4c0-0.5-0.1-1-0.2-1.8
		c-2.2-0.1-4.3-0.2-6.6-0.3c0-4.1,0-8,0-12.2C971.5,617.5,994,617.5,1016.9,617.5z M972.8,629.9c0,7.5,0,14.6,0,22.1
		c6.8-0.1,13.4,0.2,20.2-0.2c0-7.5,0.1-14.6-0.1-21.8C986.1,629.9,979.6,629.9,972.8,629.9z M992.9,710.3c0-5.9,0-11.5,0-17.3
		c-6.7,0-13.2,0-20,0c0,7,0,13.9,0,21.2C979.6,712.9,986.1,711.6,992.9,710.3z M992.9,664.9c-6.9,0-13.5,0-20,0c0,5.2,0,10.1,0,15
		c6.8,0,13.3,0,20,0C992.9,674.8,992.9,670,992.9,664.9z"/>
	<path d="M1024,673.2c10.8,0,21.4,0,32.2,0c0-9.4,0-18.4,0-27.8c-2.7-0.1-29.5-0.3-32.3-0.3c0-4.3,0-8.3,0-12.6c5.9,0,11.7,0,17.9,0
		c0-5.1,0-10,0-15c5.1,0,9.7,0,14.8,0c0,4.9,0,9.8,0,14.8c7.4,0,14.3,0,21.6,0c0-5,0-9.7,0-14.7c4.9,0,9.6,0,14.7,0
		c0,4.8,0,9.6,0,14.8c4.5,0,8.5,0,12.8,0c0,4.3,0,8.3,0,12.8c-10.6,0.1-21.2,0-31.7,0.1c-0.2,4.3-0.4,23-0.3,28c10.6,0,21.2,0,32,0
		c0,4.3,0,8.3,0,12.8c-9.5,0.2-18.9,0-29.1,0.1c12.5,21.8,24.7,43,37,64.6c-1,0.1-1.6,0.3-2.3,0.3c-4.7,0-9.4-0.1-14.1,0.1
		c-2.3,0.1-3.5-0.7-4.7-2.7c-8.5-15.1-17.2-30.1-25.8-45.2c-0.5-0.8-1-1.5-1.8-2.7c-1.5,2.5-2.9,4.7-4.2,6.9
		c-7.9,13.6-15.9,27.3-23.7,41c-1.1,2-2.4,2.8-4.7,2.7c-4.5-0.2-9-0.1-13.5-0.1c-0.8,0-1.6-0.1-2.9-0.1
		c12.5-21.6,24.8-42.9,37.5-64.8c-10.2-0.2-19.9,0-29.7-0.1C1024,681.5,1024,677.5,1024,673.2z"/>
	<path d="M422.7,700.2c40.5,0,80.7,0,121.2,0c0,11.9,0,23.7,0,35.8c3,0,5.7,0,8.5,0c0,5,0,9.6,0,14.3c-2.4,0.7-135.2,0.7-138.3,0.1
		c-0.1-0.7-0.2-1.4-0.2-2.1c0-4,0-7.9,0-12.2c2.9,0,5.6,0,8.7,0C422.8,724,422.6,712.2,422.7,700.2z M494.6,735.8
		c0-7.9,0.2-15.4-0.2-23c-7.1,0-13.9,0-20.6,0c-0.7,3.8-0.5,20.7,0.2,23C480.8,735.8,487.5,735.8,494.6,735.8z M458.6,712.9
		c-7.2,0-14,0-20.9,0c0,7.8,0,15.3,0,22.9c7.1,0,13.9,0,20.9,0C458.6,728.1,458.6,720.6,458.6,712.9z M509.7,712.7
		c0,7.8,0,15.4,0,23c5.3,0.5,17.1,0.3,19.3-0.3c0-7.5,0-14.9,0-22.5c-0.7-0.1-1.2-0.2-1.6-0.2C521.6,712.7,515.8,712.7,509.7,712.7z
		"/>
	<path d="M472.3,696.3c-1.2,0.1-1.9,0.2-2.6,0.2c-4.7,0-9.4,0-14.4,0c0-21,0-41.7,0-62.8c-14.1,0-27.8,0-41.7,0c0-4.4,0-8.4,0-12.7
		c14.3,0,28.3,0,42.8,0c0-5.1,0-10,0-15.1c5.2-0.1,9.9-0.2,15,0.1c0,5.1,0,9.9,0,14.8c10,0,19.7,0,29.7,0c0-4.9,0-9.6,0-14.3
		c2.5-0.8,10.5-1,15-0.4c0,4.8,0,9.6,0,14.7c12.1,0,23.8,0,35.7,0c0,4.3,0,8.3,0,12.7c-26.4,0-52.7,0-79.4,0
		C472.3,654.6,472.3,675.3,472.3,696.3z"/>
	<path d="M626.8,633.3c0-9.1,0-18.1,0-27.3c4.9,0,9.6,0,14.7,0c0,4.9,0,9.7,0,14.9c29.8,0.2,59.3-0.1,89,0c0,4.2,0,8.2,0,12.1
		C728.5,633.6,631.8,633.9,626.8,633.3z"/>
	<path d="M533.4,640.6c0,4.1,0,8.1,0,12.2c-1,0.1-1.9,0.2-2.8,0.2c-5.5,0-11.1,0-16.6,0c-5.5,0-7.8,1.9-8.1,7.3
		c-0.4,7.7-0.4,15.4-0.6,23.2c-0.1,4.2-0.3,8.3-0.4,12.7c-5.9,0-11.6,0-17.6,0c0-1.2,0-2.2,0-3.2c0.1-11.3,0.3-22.6,0.4-33.8
		c0.1-4.7,1.1-9.1,3.5-13.1c2.2-3.7,5.1-5.7,9.7-5.6c9.7,0.2,19.4,0.1,29.1,0.1C531.2,640.5,532.2,640.6,533.4,640.6z"/>
	<path d="M609.8,750.6c-5.7,0-11.1,0-16.4,0c-0.7-2.4-0.8-51.5-0.1-54.9c5.4,0,10.9,0,16.6,0C609.8,714,609.8,732.1,609.8,750.6z"/>
	<path d="M432.1,640.5c5.6,0,11,0,16.6,0c0,18.6,0,37,0,55.9c-5.4,0.2-10.9,0.1-16.6,0C432.1,677.7,432.1,659.3,432.1,640.5z"/>
	<path d="M618.6,783.2c6.3-0.5,6.3-0.5,9.6,4.5c7.2,10.8,14.4,21.5,21.6,32.3c0.5,0.8,1.2,1.6,2.3,2.2c0-12.9,0-25.8,0-38.9
		c2.1,0,4,0,6,0c0,16.7,0,33.4,0,50.5c-1.9,0-3.7,0.2-5.5-0.1c-0.8-0.1-1.7-1.1-2.2-1.9c-3.6-5.3-7.1-10.6-10.6-15.9
		c-4.4-6.5-8.7-13-13.1-19.5c-0.5-0.7-1-1.3-1.8-2.3c-0.7,3.6-0.3,6.8-0.4,9.9c-0.1,3.3,0,6.7,0,10c0,3.2,0,6.5,0,9.7
		c0,3.2,0,6.4,0,9.8c-2.2,0-4,0-6,0C618.6,816.7,618.6,800,618.6,783.2z"/>
	<path d="M416.6,817.7c1.2-0.1,2.2-0.3,3.2-0.4c0.8-0.1,1.6-0.1,2.6-0.2c0.2,0.7,0.5,1.2,0.6,1.8c1,4.7,4,7.4,8.4,8.8
		c4.5,1.4,9.1,1.4,13.5-0.3c4.1-1.6,6.1-5,5.5-8.7c-0.4-2.5-1.9-4.2-4-5.2c-2.1-0.9-4.3-1.6-6.5-2.3c-3.9-1.1-7.9-2-11.8-3.3
		c-3.7-1.2-6.8-3.3-8.6-6.9c-2.8-5.7-0.5-13.1,5.4-16.2c7.7-4.1,15.7-3.8,23.4,0.2c4,2.1,6.8,7.5,6.6,11.8c-1.8,0.2-3.7,0.3-5.5,0.5
		c-0.3-0.4-0.5-0.6-0.5-0.8c-1.2-6-5.2-8.7-10.9-8.9c-3.1-0.1-6.3-0.2-9.2,1.3c-3.4,1.7-5,4.9-4,8.2c0.7,2.2,2.2,3.6,4.3,4.2
		c3.2,1,6.4,1.8,9.6,2.7c3.3,1,6.7,1.8,9.8,3.1c4,1.7,6.9,4.7,7.8,9.2c1.2,6-1.5,12.3-7.1,15.1c-8.3,4.2-16.8,3.9-25-0.4
		C419.2,828.5,417,823.7,416.6,817.7z"/>
	<path d="M549.6,783.1c1.9,0,3.7,0,5.8,0c0,6.8,0,13.5,0,20.1c2.7,0.8,23.8,0.9,27,0.1c0-6.6,0-13.2,0-20.1c2.2,0,4.1,0,6.2,0
		c0,16.7,0,33.4,0,50.3c-1.9,0-3.8,0-6.1,0c0-7.9,0-15.6,0-23.6c-9.1,0-17.8,0-26.9,0c0,7.9,0,15.7,0,23.7c-2.2,0-4,0-5.9,0
		C549.2,831.4,548.9,787.7,549.6,783.1z"/>
	<path d="M1065,801.2c0.1-1.5,0.2-2.6,0.3-4c1.7,0,3.3,0,5.1,0c0.1,0.5,0.3,1.1,0.3,1.7c-0.1,11.1-0.1,22.1-0.2,33.2
		c0,1.3-0.1,2.5-0.3,3.8c-0.7,6.3-4.1,10.4-10.3,12c-4.9,1.3-9.7,1.2-14.4-1c-4.1-2-5.9-5-5.6-9.7c1,0.1,2,0.3,3,0.3
		c1.5,0,2.5,0.5,3,2.1c0.2,0.8,0.9,1.7,1.6,2.2c3.6,2.4,7.5,2.4,11.4,1.1c3.5-1.2,5-3.9,5.3-7.4c0.2-1.9,0.3-3.9,0.5-6.4
		c-1,0.6-1.6,0.7-1.9,1.1c-5,5.1-15.4,4-20.1-1.9c-6.4-8.2-4.8-21.2,0.2-27.2c5.2-6.1,15.2-6.7,20.4-1.4
		C1063.7,800.2,1064.2,800.6,1065,801.2z M1065.3,814.7c-0.5-2.4-0.8-4.8-1.5-7c-1.4-4.1-4.9-6.5-9-6.6c-4.1-0.1-7.6,2.3-9.1,6.4
		c-1.8,5-1.8,10.1,0.1,15c1.5,4.2,4.9,6.3,9.2,6.2c4-0.1,7.7-2.6,8.9-6.7C1064.6,819.8,1064.8,817.2,1065.3,814.7z"/>
	<path d="M530.8,810.4c0.7-6-1.7-8.9-7.5-9.2c-0.3,0-0.6,0-0.9,0c-6.1-0.1-7.8,1-10.4,6.9c-1.7-0.2-3.4-0.5-5.4-0.7
		c0.3-3.3,1.7-5.8,4.2-7.8c2.4-1.9,5.2-2.6,8.1-3c4-0.6,7.9-0.4,11.7,1c3.9,1.4,5.9,4.2,6.1,8.3c0.1,3.1,0,6.3,0.1,9.4
		c0.1,4.4,0.2,8.8,0.4,13.2c0.1,1.7,0.7,3.4,1.1,5.3c-1.8,0-3.7,0-5.7,0c-0.5-1.3-0.9-2.7-1.4-4.2c-1.2,0.8-2.2,1.5-3.2,2.1
		c-4.7,3-9.7,3.7-15,2.4c-4.1-1-6.8-3.6-7.5-7.9c-0.8-4.7,1.2-8.6,5.1-10.9c3.2-1.8,6.7-2.1,10.2-2.6
		C524.3,812,527.7,811.7,530.8,810.4z M530.7,815.5c-3.7,0.7-7.2,1.3-10.6,2c-1.3,0.3-2.7,0.5-4,0.9c-3.1,0.9-4.5,2.8-4.4,5.7
		c0.1,2.7,1.8,4.7,4.7,5.4C525.5,831.7,532.3,825.2,530.7,815.5z"/>
	<path d="M471,816.8c-0.2,6.2,2.9,11.3,7.9,12.4c6.3,1.4,10.1-0.6,13-6.9c1.8,0.2,3.7,0.3,5.9,0.5c-1,4.5-3.2,7.7-6.9,9.5
		c-6.9,3.4-13.7,3.1-20.1-1.4c-2.3-1.6-3.9-3.9-4.8-6.5c-2.2-6.3-2.2-12.7,0.5-18.9c2.8-6.3,8.9-9.7,16.3-9.3
		c6.6,0.4,12.2,4.6,14.2,11c0.9,3,1.6,6,1,9.6C489.1,816.8,480,816.8,471,816.8z M471.3,811.8c6.7,0,13.5,0,20.2,0
		c1-5.9-4.5-10.6-8.9-10.7C476.1,800.9,471.6,805,471.3,811.8z"/>
	<path d="M808.8,822.2c1.8,0.2,3.6,0.4,5.7,0.6c-0.8,3.9-2.7,6.6-5.6,8.7c-6.9,5.1-18.5,3.7-23.9-3c-3.1-3.9-4-8.5-3.9-13.3
		c0.1-5.7,1.5-10.9,5.9-15c6.6-6.2,21.9-6.2,26.4,6.5c1.1,3.2,1.6,6.4,1.2,10.1c-9.1,0-18,0-26.9,0c-0.6,5.5,2.3,10.5,7,12.2
		C800.5,831,804.3,829.2,808.8,822.2z M808.3,811.8c0.1-6.6-4.1-10.8-10.4-10.7c-5.9,0.2-10.2,4.8-9.8,10.7
		C794.8,811.8,801.6,811.8,808.3,811.8z"/>
	<path d="M674.5,816.8c0.1,6.4,3.1,11.3,8.6,12.5c5.6,1.3,9.1-0.7,12.6-7.1c1.7,0.2,3.5,0.3,5.6,0.5c-0.2,0.9-0.2,1.6-0.4,2.2
		c-1.9,4.5-5.1,7.7-9.9,8.8c-7,1.6-13.6,0.9-18.7-4.9c-3.4-3.8-4.3-8.6-4.2-13.5c0.1-5.8,1.5-11.1,6-15.3c6.8-6.2,22-5.9,26.4,6.7
		c1.1,3.1,1.6,6.3,1.1,10c-4.5,0-9.1,0-13.7,0C683.6,816.8,679.1,816.8,674.5,816.8z M675,811.7c6.8,0,13.6,0,20.4,0
		c-0.3-6.8-4.2-10.7-10.4-10.6C679.1,801.2,675,805.5,675,811.7z"/>
	<path d="M866.6,833.6c-1.9,0-3.7,0-5.6,0c0-16.7,0-33.4,0-50.3c1.8,0,3.6,0,5.7,0c0,5.7,0,11.4,0,17.7c1-0.7,1.6-1,2.1-1.4
		c4.5-3.8,11-4.4,16.2-1.7c2.8,1.5,4.5,3.8,5.1,6.8c0.4,1.8,0.6,3.7,0.6,5.6c0.1,7.1,0,14.2,0,21.3c0,0.6-0.1,1.2-0.2,2
		c-1.9,0-3.6,0-5.7,0c0-1-0.1-2-0.1-3c0-6.3,0-12.6,0-18.8c0-1.9-0.2-3.8-0.6-5.6c-0.4-2.1-1.9-3.5-3.8-4.3
		c-5.3-2.1-11.4,1-12.8,6.6c-0.4,1.5-0.5,3.1-0.5,4.6c-0.1,5.8,0,11.5,0,17.3C866.8,831.4,866.7,832.4,866.6,833.6z"/>
	<path d="M1032,815.5c-0.2,1.6-0.4,3.1-0.5,4.7c-0.9,9.5-9.7,15.9-20.4,14c-6.5-1.1-10.6-5.1-12.5-11.3c-1.4-4.7-1.4-9.5-0.2-14.3
		c2.4-9.6,11.1-13.4,19.2-12.1c8.4,1.3,13.6,7.5,14.2,16.2c0.1,0.9,0,1.9,0,2.8C1031.9,815.5,1032,815.5,1032,815.5z M1026,815.8
		c-0.3-2.3-0.4-4.3-0.9-6.2c-1.2-5.1-5.1-8.4-9.9-8.5c-5.2-0.1-9.2,2.7-10.6,7.9c-1.2,4.4-1.2,8.9,0.2,13.3c1.5,4.6,5.2,7.3,9.8,7.3
		c4.7,0,8.5-2.5,10-7.1C1025.4,820.3,1025.6,817.9,1026,815.8z"/>
	<path d="M974.4,815.2c-0.3,2.2-0.5,4.3-0.8,6.3c-1.4,8-8.5,12.4-15,12.8c-10.7,0.7-17.4-6.1-18.4-15.2c-0.4-3.8-0.3-7.5,0.7-11.2
		c2.2-7.8,8.7-12.2,17.4-11.9c7.5,0.3,13.7,5.5,15.3,13C974,811.2,974.1,813.3,974.4,815.2z M968.1,815.4c0.1-3.5-0.4-6.9-2.4-9.9
		c-3.9-5.9-12.6-6.1-16.8-0.4c-3.5,4.8-3.8,14.7-0.5,19.7c4.1,6.2,12.9,6.4,17.2,0.4C967.7,822.3,968,818.9,968.1,815.4z"/>
	<path d="M533.4,660.2c0,12,0,23.9,0,36.1c-4.8,0.2-9.6,0.1-14.7,0c-0.1-12.1,0-24,0-36.2C523.5,660.2,528.3,660.2,533.4,660.2z"/>
	<path d="M1078.1,797.2c2.4,0,4.2,0,6.3,0c3.4,9.6,6.8,19.2,10.4,29.2c3.6-10,7.1-19.5,10.5-29.2c2,0,3.7,0,5.7,0
		c-0.3,1-0.4,1.8-0.7,2.5c-4.9,13.1-9.8,26.2-14.8,39.3c-0.6,1.7-1.4,3.3-2.3,4.8c-2.7,4.5-6.7,5.8-12.1,4c-0.2-1.5-0.4-3.1-0.6-5.1
		c1.2,0.1,2.2,0.2,3.2,0.2c2.9,0.1,5.1-1,6.2-3.8c0.4-1,0.7-2,1.1-2.9c0.8-1.5,0.6-2.9,0-4.5c-3.9-10-7.6-20.1-11.4-30.2
		C1079.2,800.2,1078.7,798.9,1078.1,797.2z"/>
	<path d="M901.7,797.1c1.8,0,3.2,0,5,0c0.2,1.4,0.3,2.8,0.5,4.6c0.7-0.6,1.2-0.9,1.5-1.4c3.8-4.3,11.1-5.5,16.8-2.6
		c3.4,1.7,5.1,4.5,5.5,8.2c0.2,2.4,0.2,4.8,0.2,7.2c0,5.6,0,11.3,0,16.9c0,1.1,0,2.2,0,3.5c-2.1,0-3.8,0-5.9,0c0-1.3,0-2.4,0-3.5
		c0-6.1,0-12.1,0-18.2c0-1.6-0.1-3.1-0.4-4.7c-0.6-3.4-2.7-5.3-6.1-5.7c-5.2-0.6-10.8,1.7-11.1,9.3c-0.2,5.6-0.1,11.3-0.2,16.9
		c0,1.9,0,3.7,0,5.8c-2.1,0-3.9,0-5.9,0C901.7,821.4,901.7,809.4,901.7,797.1z"/>
	<path d="M783.4,783.2c0.1,0.9,0.1,1.5,0.1,2.1c0,0.9,0,1.9,0,3.2c-2.9,0-5.7,0.1-8.5,0.1c-2.7,0-5.4,0-8.4,0c0,15.2,0,30,0,44.9
		c-2.2,0-4,0-6.3,0c-0.1-4.9,0-9.7,0-14.6c0-5,0-10,0-15.1c0-4.9,0-9.8,0-15.1c-5.6-0.4-11.1,0.1-16.7-0.3c0-1.9,0-3.5,0-5.3
		C756.9,783.2,770,783.2,783.4,783.2z"/>
	<path d="M609.4,685.5c-5.5,0-10.8,0-16.1,0c-0.7-2.2-0.9-23.6-0.2-27.9c5.3,0,10.7,0,16.1,0C609.8,659.8,610,681.2,609.4,685.5z"/>
	<path d="M848.3,820.5c1.8,0.2,3.5,0.5,5.2,0.7c0.4,5.5-5.3,12.5-12.6,13.1c-10.5,0.9-17.9-5.3-18.5-15.8c-0.2-3.4-0.1-7,0.7-10.2
		c2.1-8.9,10.1-13.7,19.1-11.9c6.1,1.2,9.7,4.7,10.9,11c-1.7,0.3-3.4,0.6-5.2,0.9c-0.4-0.7-0.8-1.3-1-2c-1.3-3.2-3.6-5.1-7.1-5.3
		c-4-0.3-7.2,1.1-9.4,4.5c-1.5,2.3-1.8,4.9-2.1,7.5c-0.4,3.5-0.1,6.9,1.1,10.2c1.5,4.2,5,6.4,9.4,6.3c4.5-0.1,7.2-2.2,8.7-6.7
		C847.8,822.1,848,821.5,848.3,820.5z"/>
	<path d="M592.6,644c0-8.5,0-16.7,0-25.2c5.6,0,11,0,16.7,0c0,8.4,0,16.7,0,25.2C603.8,644,598.4,644,592.6,644z"/>
	<path d="M718.2,784.3c0,4.6,0,8.4,0,12.5c2.1,0.1,4,0.3,6.1,0.4c0,1.4,0,2.7,0,4.2c-2,0.1-3.9,0.2-6.1,0.4c0,8.1,0,16,0,23.9
		c0,1.7,1.1,2.7,2.8,2.8c1,0.1,2.1,0,3.3,0c0.3,1.6,0.6,3.1,0.9,4.8c-3,1.1-5.9,1.1-8.7,0.2c-2.2-0.8-3.7-2.4-3.9-4.8
		c-0.3-2.7-0.4-5.4-0.5-8.1c-0.1-5.1,0-10.2,0-15.4c0-1,0-2.1,0-3.3c-1.5-0.2-2.8-0.3-4.3-0.4c0-1.4,0-2.7,0-4.2
		c1.3-0.1,2.6-0.3,4.2-0.4c0-2.1,0.2-4.3,0.1-6.4c-0.1-1.8,0.4-3,2.1-3.8C715.3,786.1,716.4,785.3,718.2,784.3z"/>
	<path d="M988.4,833.6c-1.8,0-3.5,0-5.3,0c0-16.8,0-33.4,0-50.3c1.7,0,3.4,0,5.1,0C988.9,785.3,989.1,829,988.4,833.6z"/>
	<path d="M601.1,797.2c1.8,0,3.5,0,5.6,0c0,12.2,0,24.2,0,36.4c-2,0-3.7,0-5.3,0C600.7,831.4,600.5,802.3,601.1,797.2z"/>
	<path d="M606.4,789.7c-1.8,0-3.4,0-5.3,0c0-2.1,0-4.2,0-6.5c1.7,0,3.4,0,5.3,0C606.4,785.3,606.4,787.3,606.4,789.7z"/>
</g>
<g>
	<path class="st0" d="M763.8,178.7c61,0,121.9,0,182.9,0c4.5,0,8.4,1.3,12,3.8c4.6,3.2,6.8,7.6,6.8,13.4c-0.1,18.4,0,36.8,0,55.2
		c0,52.6,0,105.2,0,157.8c0,5.3,0.7,10.6,0.9,16c0.1,4-0.2,7.9-0.4,11.9c0,0.7-0.3,1.4-0.6,2.1c-1,2.5-2.5,3.3-4.9,2.2
		c-1.8-0.8-3.6-1.8-5-3.2c-4-3.8-8-7.7-11.6-11.8c-9.9-11.2-19.6-22.6-29.6-33.7c-26.9-30-55.1-58.6-83.7-87.1
		c-7-7-14.1-14-21.2-20.9c-5.7-5.5-12.3-9.7-20-11.8c-10.8-3-20.9-0.8-30.5,4.4c-10.4,5.6-19.2,13.4-27,22.2
		c-8.9,10.1-17.6,20.4-26.2,30.8c-5.2,6.2-11.4,10.5-19.5,11.5c-7.4,0.9-14.8,0-21.9-2.6c-8.5-3.2-16.1-7.9-22.3-14.6
		c-10.8-11.6-21.6-23.3-32.4-34.9c-6.8-7.4-13.6-14.7-20.2-22.3c-8.9-10.1-17.5-20.5-26.3-30.7c-1-1.2-1.4-2.5-1.4-4
		c0-12.2,0-24.5,0-36.7c0-6.9,4.5-12.8,11.3-15.4c2.5-0.9,5-1.3,7.6-1.3C641.6,178.7,702.7,178.7,763.8,178.7z"/>
	<path class="st0" d="M734.8,428.7c-2.7-0.1-5.9-0.2-9-0.5c-2.6-0.3-3.3-1.7-2.4-4.2c0.3-0.9,0.9-1.7,1.4-2.4
		c10.7-13.4,16.5-28.9,18.8-45.8c1.2-8.5,1.7-17,1.8-25.6c0-7.6,0-15.3,0-22.9c0-2.8,0.2-3.1,3-3c9.7,0.3,19.4,0.7,29.1,1.1
		c2,0.1,4,0.1,6,0.1c3.9,0.1,4.7,0.7,6,4.2c10.9,28.1,19.1,57,25.7,86.4c0.5,2.2,1.1,4.5,1.3,6.8c0.3,2.5,0,2.9-2.5,3.4
		c-1.3,0.3-2.7,0.4-4,0.4c-11,0.3-21.9,0.5-32.9,0.8c-8.8,0.2-17.6,0.4-26.3,0.6C745.7,428.3,740.5,428.5,734.8,428.7z"/>
	<path class="st1" d="M560.9,326.6v230.3c0,0,4.2,13.4,18.2,13.7c14,0.3,368,0.6,368,0.6s11.6-2.2,17.8-14.7c0.3-0.6,0-34.4,0-34.4
		l-82.8-105.5c0,0-22.5-30-50,4.4c0.3,0-24,35.3-31.9,41.8c-0.3,0.6-37.8,45.3-85.6-0.9L579.8,315.1c0,0-7.5-8.7-12.5-9.7
		c0,0.3-5.2-3.4-6.4,18.7C561.4,324.8,560.9,326.6,560.9,326.6z"/>
</g>
</svg>
